<?xml version="1.0" encoding="UTF-8" standalone="no"?>
<!-- Created with Inkscape (http://www.inkscape.org/) -->

<svg
   width="210mm"
   height="297mm"
   viewBox="0 0 210 297"
   version="1.1"
   id="svg1"
   xml:space="preserve"
   sodipodi:docname="Lisi Mascote.svg"
   inkscape:version="1.4 (86a8ad7, 2024-10-11)"
   inkscape:export-filename="Lisi Mascote.pdf"
   inkscape:export-xdpi="96"
   inkscape:export-ydpi="96"
   xmlns:inkscape="http://www.inkscape.org/namespaces/inkscape"
   xmlns:sodipodi="http://sodipodi.sourceforge.net/DTD/sodipodi-0.dtd"
   xmlns="http://www.w3.org/2000/svg"
   xmlns:svg="http://www.w3.org/2000/svg"><sodipodi:namedview
     id="namedview1"
     pagecolor="#ffffff"
     bordercolor="#000000"
     borderopacity="0.25"
     inkscape:showpageshadow="2"
     inkscape:pageopacity="0.0"
     inkscape:pagecheckerboard="0"
     inkscape:deskcolor="#d1d1d1"
     inkscape:document-units="mm"
     showgrid="false"
     inkscape:zoom="0.49538492"
     inkscape:cx="97.903667"
     inkscape:cy="687.3443"
     inkscape:window-width="1920"
     inkscape:window-height="991"
     inkscape:window-x="-9"
     inkscape:window-y="-9"
     inkscape:window-maximized="1"
     inkscape:current-layer="layer1"><inkscape:grid
       id="grid40"
       units="mm"
       originx="0"
       originy="0"
       spacingx="0.99999998"
       spacingy="1"
       empcolor="#0099e5"
       empopacity="0.30196078"
       color="#0099e5"
       opacity="0.14901961"
       empspacing="5"
       enabled="true"
       visible="false" /></sodipodi:namedview><defs
     id="defs1"><inkscape:path-effect
       effect="fillet_chamfer"
       id="path-effect36"
       is_visible="true"
       lpeversion="1"
       nodesatellites_param="F,0,0,1,0,0,0,1 @ F,0,0,1,0,0,0,1 @ F,0,0,1,0,0,0,1 @ F,0,0,1,0,0,0,1 @ F,0,0,1,0,0,0,1 @ F,0,0,1,0,0,0,1 @ F,0,0,1,0,0,0,1 @ F,0,0,1,0,0,0,1 @ F,0,0,1,0,0,0,1 @ F,0,0,1,0,0,0,1 @ F,0,0,1,0,0,0,1 @ F,0,0,1,0,0,0,1 @ F,0,0,1,0,0,0,1 @ F,0,0,1,0,0,0,1 @ F,0,0,1,0,0,0,1 @ F,0,0,1,0,0,0,1 @ F,0,0,1,0,0,0,1 @ F,0,0,1,0,0,0,1 @ F,0,0,1,0,0,0,1 @ F,0,0,1,0,0,0,1 @ F,0,0,1,0,0,0,1 @ F,0,0,1,0,0,0,1 @ F,0,0,1,0,0,0,1"
       radius="0"
       unit="px"
       method="auto"
       mode="F"
       chamfer_steps="1"
       flexible="false"
       use_knot_distance="true"
       apply_no_radius="true"
       apply_with_radius="true"
       only_selected="false"
       hide_knots="false" /><inkscape:path-effect
       effect="fillet_chamfer"
       id="path-effect36-6"
       is_visible="true"
       lpeversion="1"
       nodesatellites_param="F,0,0,1,0,0,0,1 @ F,0,0,1,0,0,0,1 @ F,0,0,1,0,0,0,1 @ F,0,0,1,0,0,0,1 @ F,0,0,1,0,0,0,1 @ F,0,0,1,0,0,0,1 @ F,0,0,1,0,0,0,1 @ F,0,0,1,0,0,0,1 @ F,0,0,1,0,0,0,1 @ F,0,0,1,0,3.9365222,0,1 @ F,0,0,1,0,0,0,1 @ F,0,0,1,0,0,0,1 @ F,0,0,1,0,0,0,1 @ F,0,0,1,0,0,0,1 @ F,0,0,1,0,0,0,1 @ F,0,0,1,0,0,0,1 @ F,0,0,1,0,0,0,1 @ F,0,0,1,0,0,0,1 @ F,0,0,1,0,0,0,1 @ F,0,0,1,0,0,0,1 @ F,0,0,1,0,0,0,1"
       radius="0"
       unit="px"
       method="auto"
       mode="F"
       chamfer_steps="1"
       flexible="false"
       use_knot_distance="true"
       apply_no_radius="true"
       apply_with_radius="true"
       only_selected="false"
       hide_knots="false" /><inkscape:path-effect
       effect="fillet_chamfer"
       id="path-effect36-6-0"
       is_visible="true"
       lpeversion="1"
       nodesatellites_param="F,0,0,1,0,0,0,1 @ F,0,0,1,0,0,0,1 @ F,0,0,1,0,0,0,1 @ F,0,0,1,0,0,0,1 @ F,0,0,1,0,0,0,1 @ F,0,0,1,0,0,0,1 @ F,0,0,1,0,0,0,1 @ F,0,0,1,0,0,0,1 @ F,0,0,1,0,0,0,1 @ F,0,0,1,0,3.9365222,0,1 @ F,0,0,1,0,0,0,1 @ F,0,0,1,0,0,0,1 @ F,0,0,1,0,0,0,1 @ F,0,0,1,0,0,0,1 @ F,0,0,1,0,0,0,1 @ F,0,0,1,0,0,0,1 @ F,0,0,1,0,0,0,1 @ F,0,0,1,0,0,0,1 @ F,0,0,1,0,0,0,1 @ F,0,0,1,0,0,0,1 @ F,0,0,1,0,0,0,1"
       radius="0"
       unit="px"
       method="auto"
       mode="F"
       chamfer_steps="1"
       flexible="false"
       use_knot_distance="true"
       apply_no_radius="true"
       apply_with_radius="true"
       only_selected="false"
       hide_knots="false" /></defs><g
     inkscape:label="Camada 1"
     inkscape:groupmode="layer"
     id="layer1"><ellipse
       style="fill:#e6e6e6;fill-opacity:1;stroke-width:2.99451;paint-order:stroke fill markers"
       id="path37"
       cx="104.71591"
       cy="199.10956"
       rx="99.123962"
       ry="20.026609" /><path
       id="path24"
       style="fill:#ff9221;fill-opacity:1;stroke-width:6.38159;paint-order:stroke fill markers"
       d="m 139.63645,62.872323 c -5.98639,-0.05821 -11.99559,2.142487 -16.65459,6.763645 -1.52696,1.514559 -3.43859,3.893322 -4.24814,5.286305 -0.80956,1.392982 -1.9347,2.767457 -2.50024,3.054238 -1.45965,0.740197 -19.603525,0.732209 -21.078578,-0.0092 -0.580411,-0.291746 -1.608936,-1.571137 -2.28546,-2.843075 -0.676532,-1.271937 -2.576136,-3.642293 -4.221251,-5.267437 -4.775793,-4.717831 -10.234799,-6.964772 -16.920754,-6.964772 -8.270622,0 -15.515624,4.009815 -20.121923,11.136649 -2.754806,4.262222 -3.542233,7.632513 -4.959123,21.223102 -0.698043,6.695482 -1.77151,16.827352 -2.385419,22.515362 -0.453962,7.07586 -0.347308,9.41814 0.09555,14.26475 -6.436008,-4.04117 -14.477296,-7.09275 -20.216263,-7.43647 -5.100224,-0.30548 -8.052327,0.34055 -10.334152,2.26057 -6.0096098,5.05676 -5.1046743,15.64784 2.285865,26.75509 5.500466,8.26673 13.868778,16.14495 26.030876,24.50618 l 5.528782,3.80134 -9.55975,-0.33522 c -14.045039,-0.49173 -20.242856,-0.42708 -21.97261,0.22842 -3.36187,1.27404 -5.305328,4.63661 -4.662054,8.06556 0.245983,1.31119 0.885818,2.17883 2.356924,3.19595 1.348527,0.93241 2.025439,1.79557 2.03856,2.59859 0.03379,2.07088 2.556498,4.04853 5.718274,4.4834 1.541466,0.21199 3.273014,0.68248 3.848306,1.04537 3.06738,1.93503 6.554246,1.38284 15.244292,-2.41392 15.509302,-6.77614 21.477396,-9.45889 21.714881,-9.76207 0.142101,-0.18141 0.795235,-0.46595 1.451242,-0.63189 0.923121,-0.23353 1.155238,-0.10708 1.026917,0.55922 -0.09581,0.49752 -2.561182,2.10311 -5.840713,3.80334 -5.759355,2.9859 -7.711536,4.6798 -8.172739,7.09244 -0.373668,1.95468 0.887712,4.50931 2.684507,5.43845 3.127556,1.61735 4.796729,0.99253 8.850786,-3.31276 1.563117,-1.65999 3.332303,-3.16086 3.931809,-3.33526 1.060221,-0.30846 1.073218,-0.24946 0.454842,2.14936 -0.907336,3.51984 -0.461755,5.53441 1.631899,7.37265 2.137416,1.87668 4.771413,2.05912 7.318447,0.50623 2.225915,-1.3571 3.265642,-3.90853 3.066689,-7.52479 -0.253386,-4.60555 1.832018,-5.13253 4.371394,-1.10439 2.035111,3.22827 3.663104,4.5575 5.959945,4.86557 4.047506,0.5429 7.402347,-2.83861 6.37383,-6.42481 -0.786077,-2.74091 -1.546229,-3.66747 -4.423186,-5.38827 -1.53888,-0.7681 -4.57559,-4.21575 -4.202786,-5.55486 3.590911,0.50139 5.02455,1.0671 8.403263,1.94414 5.110211,1.22786 12.160291,2.01844 18.073621,2.05068 2.35993,-0.10387 4.69431,-0.5308 7.04666,-0.77798 -0.8406,1.11243 -1.91758,1.84558 -3.77645,2.94263 -4.42364,2.61076 -5.12849,8.0631 -1.34083,10.37269 3.39291,2.06887 6.67018,0.87002 9.43447,-3.45128 1.9617,-3.06661 2.97216,-3.76577 4.26502,-2.95025 0.63371,0.39973 0.79326,1.25702 0.69572,3.73188 -0.21802,5.5317 1.98274,8.31565 6.57457,8.31565 1.57421,0 2.49796,-0.36949 3.77243,-1.50986 1.55961,-1.39545 1.68325,-1.74021 1.6335,-4.54401 -0.0297,-1.66864 -0.34007,-3.56885 -0.6901,-4.22287 -0.59179,-1.10578 -0.55475,-1.16346 0.53072,-0.81895 1.32181,0.41952 2.22298,1.08101 3.47897,2.55322 3.75436,4.40065 6.43384,5.65676 9.22134,4.32282 1.91506,-0.91641 3.54503,-3.92794 3.09558,-5.71867 -0.5973,-2.37986 -2.95294,-4.53406 -7.51596,-6.87243 -4.97895,-2.55153 -6.25821,-3.43459 -6.25821,-4.32122 0,-0.45168 0.27117,-0.46214 1.05822,-0.0409 0.58186,0.3114 6.10396,2.67399 12.27195,5.25057 6.168,2.57654 13.19147,5.51285 15.6072,6.52478 5.02549,2.10512 8.78726,2.44032 11.013,0.98194 0.74357,-0.48721 1.8837,-0.88595 2.53316,-0.88881 2.02048,-0.005 5.07765,-1.05189 6.12293,-2.09718 0.6078,-0.6078 1.00042,-1.70917 1.00042,-2.80854 0,-1.47746 0.19315,-1.80855 1.05661,-1.80855 0.58132,0 1.62761,-0.57099 2.32521,-1.26857 1.0191,-1.0191 1.26858,-1.79258 1.26858,-3.93623 0,-2.40016 -0.19728,-2.86533 -1.9635,-4.63154 -1.28057,-1.28058 -2.65781,-2.09323 -3.96071,-2.33765 -1.09864,-0.20611 -8.00564,-0.16765 -15.34867,0.0859 -7.34304,0.25356 -13.34778,0.34526 -13.34302,0.20313 0.005,-0.14208 1.80529,-1.42087 4.00206,-2.84186 9.4977,-6.14377 19.99288,-15.865 25.39699,-23.52342 5.47407,-7.75758 7.55783,-13.37414 7.1691,-19.32464 -0.79512,-12.17143 -10.72084,-14.98046 -26.621,-7.53322 -1.92583,0.90201 -4.3919,2.29876 -6.78734,3.75917 1.30261,-9.32063 0.72425,-17.48589 -0.29306,-26.68767 -2.71951,-24.600543 -3.17684,-26.896185 -6.31682,-31.701785 -4.70437,-7.199833 -12.36371,-11.008818 -20.06051,-11.083657 z"
       sodipodi:nodetypes="ssssssssssccssscccssssscsssssssssssssssssccccssssssscssssssssssscssssssssccsssccss" /><path
       style="fill:#b64900;stroke-width:5.16825;paint-order:stroke fill markers;fill-opacity:1"
       d="m 121.99929,100.42396 c 1.67766,0 2.19768,1.49298 1.22079,3.5049 -1.22381,2.52046 -6.44366,6.01086 -11.11751,7.43391 -4.60108,1.40089 -11.15524,1.19358 -15.496591,-0.4902 -8.00155,-3.10339 -12.937505,-9.98646 -9.11132,-10.38117 0.9208,-0.095 1.34333,0.1994 3.31266,2.30808 3.73307,3.99722 8.176748,5.7728 14.424191,5.76299 6.37668,-0.01 12.29587,-2.62749 14.8369,-6.56087 0.79014,-1.22309 1.2241,-1.57764 1.93088,-1.57764 z"
       id="path20-4"
       sodipodi:nodetypes="sssssssss" /><path
       style="fill:#ba73ff;fill-opacity:1;stroke-width:3.58054;paint-order:stroke fill markers"
       d="m 94.642426,189.56446 c -1.286759,-0.21964 -3.991743,-1.15816 -5.771099,-1.63426 -1.578002,-0.42221 -2.358633,-0.41137 -1.810608,-0.247 l 0.759258,-1.68219 -0.271502,-1.24351 c -0.149334,-0.68396 -2.036641,-1.82706 -2.452802,-3.63658 -1.431869,-6.22557 -3.386544,-14.89315 -3.576585,-16.89146 -0.234581,-2.46678 -0.382804,-8.23846 -0.312056,-12.1506 0.04715,-2.60695 0.07458,-2.74494 0.758109,-3.81425 0.97674,-1.52799 4.584276,-5.2586 9.632643,-7.286 2.315859,-0.93005 4.36946,-1.44285 7.561367,-1.88818 2.333589,-0.32557 3.143959,-0.32672 6.584989,-0.01 2.90819,0.2682 4.47745,0.52991 6.06232,1.0111 4.52558,1.374 8.22772,3.4169 11.11934,6.13025 1.89615,1.77922 2.8672,2.95744 3.82691,4.64328 l 0.77779,1.36625 -0.52921,3.8325 c -0.6715,4.86301 -0.61753,8.55085 -2.03067,13.78175 -1.30798,4.84165 -1.86063,11.18821 -3.98337,15.98003 -1.86752,0.30856 -2.53969,5.1787 -3.61649,5.31062 -2.18956,0.26826 -3.1524,0.60732 -6.85336,0.39707 -5.47105,-0.3108 -11.28496,-0.96847 -15.874974,-1.96943 z"
       id="path38"
       sodipodi:nodetypes="csscssssssssssscssssscc" /><path
       style="fill:#a76be1;stroke-width:2.25624;paint-order:stroke fill markers;fill-opacity:1"
       d="m 89.791503,188.10487 c 2.815408,0.38195 -2.929512,-3.01524 -5.179361,-18.10668 -2.196401,-14.73288 -2.765269,-15.20847 -2.816503,-18.06109 -0.04373,-2.4361 0.541678,-4.07143 0.215757,-3.9777 -0.159404,0.0458 -0.890299,2.08648 -0.954468,2.41476 -0.453931,2.32245 -0.945059,6.24258 0.891985,19.47088 0.142654,1.02719 0.283514,2.03881 0.313026,2.24801 0.202013,1.43223 0.360943,2.26043 0.764278,3.98292 0.75685,3.38158 1.608314,6.75919 2.817994,10.0053 0.300316,0.8059 0.517851,1.43264 1.273249,1.61271 0.470961,0.11227 1.427339,0.17902 2.052738,0.30368 0.371889,0.074 0.514154,0.0927 0.621305,0.10721 z"
       id="path29-2-2"
       sodipodi:nodetypes="ssssssssssss" /><path
       style="fill:#a76be1;stroke-width:2.26442;paint-order:stroke fill markers;fill-opacity:1"
       d="m 117.64467,191.11009 c -2.81937,0.35574 3.89695,-3.17185 6.3089,-18.34891 2.35465,-14.81647 2.9286,-15.28963 3.01049,-18.16228 0.0699,-2.45321 -0.49788,-4.10635 -0.17297,-4.0086 0.15888,0.0477 0.86781,2.11068 0.92845,2.442 0.42894,2.34386 0.8779,6.29729 -1.10125,19.60203 -0.15368,1.03314 -0.3054,2.05059 -0.33717,2.26099 -0.21739,1.44048 -0.38521,2.27301 -0.80705,4.00376 -0.79316,3.39816 -2.54272,7.08474 -3.78723,10.3418 -0.30896,0.80862 -0.4782,1.25427 -1.23549,1.42787 -0.47215,0.10823 -0.71406,0.12895 -1.34076,0.24809 -0.37266,0.0709 -1.35862,0.17971 -1.46592,0.19325 z"
       id="path29-2-2-8"
       sodipodi:nodetypes="ssssssssssss" /><path
       style="fill:#f77e00;stroke-width:3.10742;paint-order:stroke fill markers;fill-opacity:1"
       d="m 179.50779,192.08917 c 1.21412,0.47749 2.34992,1.17409 3.37692,1.97868 0.99284,0.77782 2.12025,1.92761 2.69098,3.42969 0.40811,0.91168 0.84489,2.85477 -0.60678,3.06035 -0.0703,-0.0158 -0.75591,-1.65107 -1.74124,-2.79655 -1.7038,-2.05763 -4.20973,-2.91593 -6.54279,-3.93094 -0.91052,-0.39612 -1.90986,-0.54438 -2.86313,-0.82235 -1.20298,-0.35079 -2.27497,-0.60449 -3.60468,-1.0669 1.17427,-0.37349 2.00873,-0.52813 3.03812,-0.56428 2.09639,-0.0737 4.86911,0.2463 6.2526,0.7123 z"
       id="path33-1"
       sodipodi:nodetypes="aaaaaaacaa" /><path
       style="fill:#f77e00;stroke-width:2.86437;paint-order:stroke fill markers;fill-opacity:1"
       d="m 186.49374,187.4922 c 1.28331,0.22691 2.53376,0.64888 3.69933,1.17704 1.12679,0.51059 2.45955,1.31408 3.31799,2.4929 0.58139,0.70665 1.39686,2.27472 0.0175,2.65507 -0.0719,-0.003 -1.06938,-1.27734 -2.26224,-2.09755 -2.07806,-1.4828 -4.70141,-1.84434 -7.18689,-2.36211 -0.97002,-0.20206 -1.97744,-0.18343 -2.96568,-0.28017 -1.24708,-0.1224 -2.34666,-0.18157 -3.74004,-0.37958 1.07436,-0.48154 1.85994,-0.73077 2.85994,-0.90848 2.03649,-0.36192 4.81335,-0.49036 6.26008,-0.29738 z"
       id="path33-1-6"
       sodipodi:nodetypes="aaaaaaacaa" /><path
       style="fill:#f77e00;fill-opacity:1;stroke-width:3.93608;paint-order:stroke fill markers"
       d="m 145.23345,201.49825 c -1.89363,-1.4774 -2.9649,-1.77585 -4.12565,-2.43447 -3.26,-2.09924 8.55587,-1.31792 4.12565,2.43447 z"
       id="path34"
       sodipodi:nodetypes="ccc" /><path
       style="fill:#f77e00;fill-opacity:1;stroke-width:4.35018;paint-order:stroke fill markers"
       d="m 129.66398,202.19974 c -0.0547,-2.41078 0.16586,-3.60982 -0.88759,-4.54234 -1.06851,-1.27254 5.99023,0.75108 0.88759,4.54234 z"
       id="path34-3"
       sodipodi:nodetypes="ccc" /><path
       style="fill:#f77e00;fill-opacity:1;stroke-width:3.10742;paint-order:stroke fill markers"
       d="m 68.677451,196.8506 c 0.252167,-0.48707 0.317221,-1.12643 0.01593,-1.64537 -0.240134,-0.21691 -0.65743,-0.12182 -0.97002,-0.0382 -0.704026,0.18843 -1.31889,0.66635 -1.849715,1.1657 -0.593455,0.55826 -1.100166,1.23818 -1.426997,1.98452 -0.251157,0.59089 -0.247964,1.14394 -0.136214,1.74827 0,0 0.642024,-0.55337 0.996597,-0.78308 1.430104,-0.62158 2.733488,-1.20157 3.370431,-2.43185 z"
       id="path35-2"
       sodipodi:nodetypes="asaaacaa" /><path
       style="fill:#f77e00;fill-opacity:1;stroke-width:2.8852;paint-order:stroke fill markers"
       d="m 79.227357,196.74618 c -0.204468,-0.43875 -0.64642,-0.84096 -1.236248,-0.93615 -0.321066,0.0348 -0.52137,0.36088 -0.661981,0.61213 -0.316716,0.56586 -0.355908,1.23637 -0.32401,1.86405 0.03565,0.70172 0.220098,1.41523 0.572269,2.04864 0.283778,0.4965 0.70488,0.80559 1.235697,1.07261 0,0 -0.04475,-0.92125 -0.01756,-1.38102 0.0651,-1.099 0.788779,-2.14941 0.43179,-3.28024 0,-10e-6 0,-2e-5 0,-2e-5 z"
       id="path35-2-8"
       sodipodi:nodetypes="asaaacasa" /><path
       style="fill:#f77e00;fill-opacity:1;stroke-width:4;paint-order:stroke fill markers"
       d="m -141.47875,258.43815 c -0.18414,-2.12962 -1.17679,-6.3038 -1.17679,-6.3038 0,0 3.29716,5.28459 4.04643,8.25652 0.83221,3.3009 0.60041,6.80738 0.39055,10.20509 -0.2602,4.21277 -2.03762,12.49738 -2.03762,12.49738 0,0 1.5255,-1.86832 2.3093,-2.78474 3.15906,-3.69358 6.17352,-7.53332 9.64473,-10.93523 2.88157,-2.82404 4.00897,-4.37048 6.92792,-5.97701 2.26709,-1.24776 3.89859,-2.46424 7.23355,-2.81871 -0.77987,0.57069 -1.59304,1.24355 -2.41172,1.95487 -1.64046,1.42534 -4.24188,3.80731 -5.73433,5.38739 -4.22698,4.47514 -9.11057,10.81903 -13.21501,16.12434 -2.40607,3.11003 -4.61722,6.36883 -6.79206,9.64473 -1.65389,2.4912 -3.18464,5.06209 -4.75445,7.60711 -0.9601,1.55654 -1.9964,3.07056 -2.85267,4.68654 -0.79219,1.49505 -2.10554,4.61859 -2.10554,4.61859 l -0.20376,0.54338 -2.92059,-1.29051 1.42633,-2.71682 c 0,0 4.62321,-8.9472 6.38455,-13.65205 1.58535,-4.23474 2.70365,-8.63836 3.73563,-13.04078 0.83004,-3.54092 1.61825,-7.11157 1.9697,-10.73145 0.36321,-3.74096 0.45964,-7.53026 0.13585,-11.27484 z"
       id="path36-0"
       sodipodi:nodetypes="acaacasscsaaaaccccaasa"
       inkscape:path-effect="#path-effect36-6"
       inkscape:original-d="m -141.47875,258.43815 c -0.18414,-2.12962 -1.17679,-6.3038 -1.17679,-6.3038 0,0 3.29716,5.28459 4.04643,8.25652 0.83221,3.3009 0.60041,6.80738 0.39055,10.20509 -0.2602,4.21277 -2.03762,12.49738 -2.03762,12.49738 0,0 1.5255,-1.86832 2.3093,-2.78474 3.15906,-3.69358 6.17352,-7.53332 9.64473,-10.93523 2.88157,-2.82404 4.00897,-4.37048 6.92792,-5.97701 2.26709,-1.24776 3.89859,-2.46424 7.23355,-2.81871 -1.71857,1.2576 -3.59881,3.01136 -5.34343,4.57945 -4.7352,4.25607 -10.96644,12.35809 -16.01763,18.88715 -2.40607,3.11003 -4.61722,6.36883 -6.79206,9.64473 -1.65389,2.4912 -3.18464,5.06209 -4.75445,7.60711 -0.9601,1.55654 -1.9964,3.07056 -2.85267,4.68654 -0.79219,1.49505 -2.10554,4.61859 -2.10554,4.61859 l -0.20376,0.54338 -2.92059,-1.29051 1.42633,-2.71682 c 0,0 4.62321,-8.9472 6.38455,-13.65205 1.58535,-4.23474 2.70365,-8.63836 3.73563,-13.04078 0.83004,-3.54092 1.61825,-7.11157 1.9697,-10.73145 0.36321,-3.74096 0.45964,-7.53026 0.13585,-11.27484 z"
       transform="matrix(0.77685487,0,0,0.77685487,264.15764,-52.538708)" /><path
       style="fill:#f77e00;fill-opacity:1;stroke-width:4;paint-order:stroke fill markers"
       d="m -141.47875,258.43815 c -0.18414,-2.12962 -1.17679,-6.3038 -1.17679,-6.3038 0,0 3.29716,5.28459 4.04643,8.25652 0.83221,3.3009 0.60041,6.80738 0.39055,10.20509 -0.2602,4.21277 -2.03762,12.49738 -2.03762,12.49738 0,0 1.5255,-1.86832 2.3093,-2.78474 3.15906,-3.69358 6.17352,-7.53332 9.64473,-10.93523 2.88157,-2.82404 4.00897,-4.37048 6.92792,-5.97701 2.26709,-1.24776 3.89859,-2.46424 7.23355,-2.81871 -0.77987,0.57069 -1.59304,1.24355 -2.41172,1.95487 -1.64046,1.42534 -4.24188,3.80731 -5.73433,5.38739 -4.22698,4.47514 -9.11057,10.81903 -13.21501,16.12434 -2.40607,3.11003 -4.61722,6.36883 -6.79206,9.64473 -1.65389,2.4912 -3.18464,5.06209 -4.75445,7.60711 -0.9601,1.55654 -1.9964,3.07056 -2.85267,4.68654 -0.79219,1.49505 -2.10554,4.61859 -2.10554,4.61859 l -0.20376,0.54338 -2.92059,-1.29051 1.42633,-2.71682 c 0,0 4.62321,-8.9472 6.38455,-13.65205 1.58535,-4.23474 2.70365,-8.63836 3.73563,-13.04078 0.83004,-3.54092 1.61825,-7.11157 1.9697,-10.73145 0.36321,-3.74096 0.45964,-7.53026 0.13585,-11.27484 z"
       id="path36-0-1"
       sodipodi:nodetypes="acaacasscsaaaaccccaasa"
       inkscape:path-effect="#path-effect36-6-0"
       inkscape:original-d="m -141.47875,258.43815 c -0.18414,-2.12962 -1.17679,-6.3038 -1.17679,-6.3038 0,0 3.29716,5.28459 4.04643,8.25652 0.83221,3.3009 0.60041,6.80738 0.39055,10.20509 -0.2602,4.21277 -2.03762,12.49738 -2.03762,12.49738 0,0 1.5255,-1.86832 2.3093,-2.78474 3.15906,-3.69358 6.17352,-7.53332 9.64473,-10.93523 2.88157,-2.82404 4.00897,-4.37048 6.92792,-5.97701 2.26709,-1.24776 3.89859,-2.46424 7.23355,-2.81871 -1.71857,1.2576 -3.59881,3.01136 -5.34343,4.57945 -4.7352,4.25607 -10.96644,12.35809 -16.01763,18.88715 -2.40607,3.11003 -4.61722,6.36883 -6.79206,9.64473 -1.65389,2.4912 -3.18464,5.06209 -4.75445,7.60711 -0.9601,1.55654 -1.9964,3.07056 -2.85267,4.68654 -0.79219,1.49505 -2.10554,4.61859 -2.10554,4.61859 l -0.20376,0.54338 -2.92059,-1.29051 1.42633,-2.71682 c 0,0 4.62321,-8.9472 6.38455,-13.65205 1.58535,-4.23474 2.70365,-8.63836 3.73563,-13.04078 0.83004,-3.54092 1.61825,-7.11157 1.9697,-10.73145 0.36321,-3.74096 0.45964,-7.53026 0.13585,-11.27484 z"
       transform="matrix(-0.77646731,-0.02453563,-0.02453563,0.77646731,-48.542072,-56.192154)" /><circle
       style="fill:#ffffff;fill-opacity:1;stroke-width:6.01871;paint-order:stroke fill markers"
       id="path39-0"
       cx="139.64821"
       cy="84.832893"
       r="16.6756" /><rect
       style="fill:#0e0e0e;fill-opacity:1;stroke-width:3.47991;paint-order:stroke fill markers"
       id="rect40-8"
       width="18.505829"
       height="22.833805"
       x="126.15376"
       y="74.0681"
       rx="9.3222589" /><circle
       style="fill:#ffffff;fill-opacity:1;stroke-width:1.1439;paint-order:stroke fill markers"
       id="path39-3"
       cx="132.22734"
       cy="80.394646"
       r="3.1693304" /><circle
       style="fill:#ffffff;fill-opacity:1;stroke-width:6.01871;paint-order:stroke fill markers"
       id="path39-0-2"
       cx="-72.535149"
       cy="84.77816"
       r="16.6756"
       transform="scale(-1,1)" /><rect
       style="fill:#0e0e0e;fill-opacity:1;stroke-width:3.47991;paint-order:stroke fill markers"
       id="rect40-8-9"
       width="18.505829"
       height="22.833805"
       x="-86.029579"
       y="74.013367"
       rx="9.3222589"
       transform="scale(-1,1)" /><rect
       style="fill:#f86400;fill-opacity:1;stroke-width:3.42646;paint-order:stroke fill markers"
       id="rect40-8-9-2"
       width="18.505802"
       height="22.137753"
       x="105.20593"
       y="54.501972"
       rx="9.3222466"
       transform="matrix(0.00674219,0.99997727,0.99997427,-0.00717283,0,0)" /><rect
       style="fill:#f86400;fill-opacity:1;stroke-width:3.43199;paint-order:stroke fill markers"
       id="rect40-8-9-2-6"
       width="18.505804"
       height="22.209253"
       x="106.24608"
       y="131.78233"
       rx="9.3222466"
       transform="matrix(0.00676397,0.99997712,0.99997444,-0.00714975,0,0)" /><circle
       style="fill:#ffffff;fill-opacity:1;stroke-width:1.1439;paint-order:stroke fill markers"
       id="path39-3-1"
       cx="-79.955994"
       cy="80.339897"
       r="3.1693304"
       transform="scale(-1,1)" /><path
       style="fill:#f77e00;stroke-width:3.10742;paint-order:stroke fill markers;fill-opacity:1"
       d="m 22.62506,187.34703 c -1.30169,0.0878 -2.595022,0.40806 -3.817332,0.86421 -1.181636,0.44096 -2.604088,1.19575 -3.602557,2.45475 -0.664809,0.74547 -1.669018,2.46532 -0.347596,3.10048 0.07186,0.007 1.220036,-1.34495 2.505746,-2.13863 2.246516,-1.44567 4.894683,-1.50554 7.42549,-1.76707 0.987709,-0.10207 1.985058,0.059 2.977747,0.0824 1.252732,0.0297 2.351243,0.11215 3.75854,0.0737 -1.00623,-0.71127 -1.754792,-1.11114 -2.72499,-1.45706 -1.97586,-0.70449 -4.715424,-1.23842 -6.175041,-1.21291 z"
       id="path33-1-5"
       sodipodi:nodetypes="aaaaaaacaa" /><path
       style="fill:#f77e00;stroke-width:3.10742;paint-order:stroke fill markers;fill-opacity:1"
       d="m 29.618408,192.2303 c -1.214123,0.4775 -2.349923,1.1741 -3.376926,1.97868 -0.992836,0.77782 -2.120246,1.92762 -2.690986,3.4297 -0.408097,0.91168 -0.844876,2.85476 0.606786,3.06034 0.07038,-0.0157 0.755919,-1.65106 1.741234,-2.79653 1.703807,-2.05764 4.209738,-2.91595 6.542796,-3.93095 0.910529,-0.39612 1.909866,-0.54438 2.86313,-0.82234 1.202983,-0.35079 2.274973,-0.6045 3.604684,-1.06691 -1.174271,-0.37349 -2.008729,-0.52813 -3.038125,-0.56429 -2.096389,-0.0737 -4.869107,0.24631 -6.252593,0.7123 z"
       id="path33-1-9"
       sodipodi:nodetypes="aaaaaaacaa" /></g></svg>
