<?xml version="1.0" encoding="UTF-8" standalone="no"?>
<!-- Created with Inkscape (http://www.inkscape.org/) -->

<svg
   width="200mm"
   height="70mm"
   viewBox="0 0 200 70"
   version="1.1"
   id="svg1"
   xml:space="preserve"
   inkscape:version="1.4 (86a8ad7, 2024-10-11)"
   sodipodi:docname="Logo1TecLibras.svg"
   xmlns:inkscape="http://www.inkscape.org/namespaces/inkscape"
   xmlns:sodipodi="http://sodipodi.sourceforge.net/DTD/sodipodi-0.dtd"
   xmlns="http://www.w3.org/2000/svg"
   xmlns:svg="http://www.w3.org/2000/svg"><sodipodi:namedview
     id="namedview1"
     pagecolor="#ffffff"
     bordercolor="#000000"
     borderopacity="0.25"
     inkscape:showpageshadow="2"
     inkscape:pageopacity="0.0"
     inkscape:pagecheckerboard="0"
     inkscape:deskcolor="#d1d1d1"
     inkscape:document-units="mm"
     showgrid="true"
     inkscape:zoom="0.69817016"
     inkscape:cx="251.37138"
     inkscape:cy="387.44137"
     inkscape:window-width="1920"
     inkscape:window-height="991"
     inkscape:window-x="-9"
     inkscape:window-y="-9"
     inkscape:window-maximized="1"
     inkscape:current-layer="layer1"><inkscape:grid
       id="grid15"
       units="mm"
       originx="0"
       originy="0"
       spacingx="0.99999999"
       spacingy="0.99999999"
       empcolor="#0099e5"
       empopacity="0.30196078"
       color="#0099e5"
       opacity="0.14901961"
       empspacing="5"
       enabled="true"
       visible="true" /></sodipodi:namedview><defs
     id="defs1" /><g
     inkscape:label="Camada 1"
     inkscape:groupmode="layer"
     id="layer1"><g
       id="g51"
       transform="translate(-11.303251,-47.240003)"
       style="fill:#f86400;fill-opacity:1"><path
         id="path50"
         style="font-weight:600;font-size:7.7239px;font-family:Rawline;-inkscape-font-specification:'Rawline, Semi-Bold';fill:#f86400;stroke-width:7.94579;paint-order:stroke fill markers;fill-opacity:1"
         d="m 179.99091,95.307734 c -0.3018,0 -0.58721,0.06254 -0.85616,0.187775 -0.26895,0.125243 -0.49766,0.291837 -0.68655,0.499191 -0.18888,0.207356 -0.33894,0.449464 -0.44981,0.726619 -0.1088,0.275112 -0.16287,0.56053 -0.16287,0.856172 0,0.227883 0.0326,0.453889 0.0983,0.677673 0.0658,0.221727 0.16127,0.428095 0.28651,0.619021 0.1273,0.19094 0.27603,0.358908 0.44644,0.504676 0.17246,0.145769 0.37166,0.260984 0.5975,0.345162 0.22585,0.08212 0.46392,0.123213 0.7144,0.123213 0.30179,0 0.58722,-0.06164 0.85616,-0.184814 0.26895,-0.125235 0.49675,-0.291404 0.68358,-0.498763 0.18683,-0.207361 0.33468,-0.448988 0.44349,-0.724092 0.11086,-0.275113 0.16625,-0.560107 0.16625,-0.855748 0,-0.281261 -0.0522,-0.557739 -0.15696,-0.828744 -0.10477,-0.273055 -0.24853,-0.516053 -0.43125,-0.729574 -0.18067,-0.21557 -0.40625,-0.389308 -0.67726,-0.520708 -0.271,-0.131391 -0.56177,-0.197059 -0.87178,-0.197059 z m -0.005,0.643926 c 0.20941,0 0.40328,0.04508 0.5819,0.13545 0.18066,0.08827 0.33072,0.208433 0.44982,0.360353 0.12112,0.149878 0.21537,0.323192 0.28313,0.520283 0.0698,0.195042 0.10465,0.398274 0.10465,0.609745 0,0.203248 -0.0326,0.401557 -0.0984,0.594549 -0.0636,0.192983 -0.15429,0.367203 -0.27132,0.523239 -0.11703,0.153976 -0.26667,0.278158 -0.4494,0.372587 -0.18272,0.09447 -0.38283,0.141782 -0.60045,0.141782 -0.28331,0 -0.53611,-0.07811 -0.75784,-0.234185 -0.22173,-0.156036 -0.39013,-0.357047 -0.5051,-0.603408 -0.11292,-0.246371 -0.16921,-0.511244 -0.16921,-0.794564 0,-0.203257 0.033,-0.401565 0.0987,-0.594549 0.0658,-0.192984 0.15773,-0.366306 0.27682,-0.520283 0.11907,-0.153985 0.27004,-0.27726 0.45277,-0.369645 0.18478,-0.09444 0.38621,-0.141354 0.60383,-0.141354 z" /><path
         id="path42"
         style="font-weight:600;font-size:7.7239px;font-family:Rawline;-inkscape-font-specification:'Rawline, Semi-Bold';fill:#f86400;stroke-width:7.94579;paint-order:stroke fill markers;fill-opacity:1"
         d="m 137.54406,95.338543 v 4.477893 h 1.58913 c 0.66108,0 1.18949,-0.204564 1.58574,-0.613115 0.39828,-0.410612 0.59751,-0.954656 0.59751,-1.632158 0,-0.31207 -0.0469,-0.601506 -0.14136,-0.868404 -0.0924,-0.268957 -0.22816,-0.50481 -0.40678,-0.708059 -0.17862,-0.205306 -0.40865,-0.365651 -0.68991,-0.480622 -0.27922,-0.11702 -0.59414,-0.175535 -0.9452,-0.175535 z m 0.7051,0.625349 h 0.88403 c 0.45576,0 0.8131,0.148744 1.0718,0.446443 0.26072,0.295632 0.39073,0.682458 0.39073,1.160828 0,0.310003 -0.0554,0.586481 -0.16626,0.828736 -0.11086,0.242263 -0.27794,0.435223 -0.50171,0.578935 -0.22174,0.141663 -0.48661,0.212245 -0.79456,0.212245 h -0.88403 z" /><path
         id="path40"
         style="font-weight:600;font-size:7.7239px;font-family:Rawline;-inkscape-font-specification:'Rawline, Semi-Bold';fill:#f86400;stroke-width:7.94579;paint-order:stroke fill markers;fill-opacity:1"
         d="m 129.33133,95.338543 -1.75538,4.477893 h 0.75152 l 0.46796,-1.216523 h 1.72795 l 0.4709,1.216523 h 0.74563 l -1.74019,-4.477893 z m 0.33292,0.775995 0.7203,1.961712 h -1.46254 z" /><path
         id="path37"
         style="font-weight:600;font-size:7.7239px;font-family:Rawline;-inkscape-font-specification:'Rawline, Semi-Bold';fill:#f86400;stroke-width:7.94579;paint-order:stroke fill markers;fill-opacity:1"
         d="m 115.79423,95.338543 v 4.477893 h 0.70511 v -1.558315 h 1.04099 l 0.97306,1.558315 h 0.79456 l -1.05323,-1.703049 c 0.26278,-0.08418 0.47407,-0.248543 0.63421,-0.492856 0.16013,-0.24637 0.24052,-0.521515 0.24052,-0.825363 0,-0.178622 -0.0353,-0.355062 -0.10509,-0.529568 -0.0699,-0.174514 -0.16407,-0.330401 -0.28314,-0.467958 -0.11909,-0.137557 -0.26692,-0.248763 -0.44349,-0.332934 -0.17451,-0.08418 -0.35942,-0.126165 -0.55447,-0.126165 z m 0.70511,0.625349 h 1.19796 c 0.18887,0 0.35504,0.08218 0.49876,0.246428 0.14371,0.162199 0.21563,0.356955 0.21563,0.584848 0,0.23199 -0.0635,0.430306 -0.19073,0.594548 -0.1273,0.162193 -0.28854,0.243048 -0.48358,0.243048 h -1.23804 z" /><path
         id="path35"
         style="font-weight:600;font-size:7.7239px;font-family:Rawline;-inkscape-font-specification:'Rawline, Semi-Bold';fill:#f86400;stroke-width:7.94579;paint-order:stroke fill markers;fill-opacity:1"
         d="m 111.62773,95.307734 c -0.30179,0 -0.58721,0.06254 -0.85616,0.187775 -0.26895,0.125243 -0.49808,0.291837 -0.68696,0.499191 -0.18888,0.207356 -0.33852,0.449464 -0.4494,0.726619 -0.1088,0.275112 -0.16329,0.56053 -0.16329,0.856172 0,0.227883 0.033,0.453889 0.0987,0.677673 0.0658,0.221727 0.16086,0.428095 0.2861,0.619021 0.12729,0.19094 0.27646,0.358908 0.44685,0.504676 0.17247,0.145769 0.37125,0.260984 0.59709,0.345162 0.22584,0.08212 0.46433,0.123213 0.71481,0.123213 0.3018,0 0.58679,-0.06164 0.85574,-0.184814 0.26895,-0.125235 0.49719,-0.291404 0.68401,-0.498763 0.18683,-0.207361 0.33467,-0.448988 0.44349,-0.724092 0.11086,-0.275113 0.16625,-0.560107 0.16625,-0.855748 0,-0.281261 -0.0526,-0.557739 -0.15739,-0.828744 -0.10466,-0.273055 -0.24811,-0.516053 -0.43083,-0.729574 -0.18066,-0.21557 -0.40668,-0.389308 -0.67768,-0.520708 -0.271,-0.131391 -0.56134,-0.197059 -0.87136,-0.197059 z m -0.007,0.643926 c 0.20942,0 0.4037,0.04508 0.58232,0.13545 0.18067,0.08827 0.33031,0.208433 0.4494,0.360353 0.12112,0.149878 0.21537,0.323192 0.28313,0.520283 0.0698,0.195042 0.10509,0.398274 0.10509,0.609745 0,0.203248 -0.033,0.401557 -0.0987,0.594549 -0.0636,0.192983 -0.15388,0.367203 -0.27091,0.523239 -0.11702,0.153976 -0.26709,0.278158 -0.44982,0.372587 -0.18271,0.09447 -0.38282,0.141782 -0.60045,0.141782 -0.28333,0 -0.5357,-0.07811 -0.75743,-0.234185 -0.22173,-0.156036 -0.39012,-0.357047 -0.50509,-0.603408 -0.11292,-0.246371 -0.1692,-0.511244 -0.1692,-0.794564 0,-0.203257 0.0326,-0.401565 0.0983,-0.594549 0.0658,-0.192984 0.15815,-0.366306 0.27724,-0.520283 0.11907,-0.153985 0.27004,-0.27726 0.45276,-0.369645 0.18479,-0.09444 0.3858,-0.141354 0.60342,-0.141354 z" /><path
         id="path32"
         style="font-weight:600;font-size:7.7239px;font-family:Rawline;-inkscape-font-specification:'Rawline, Semi-Bold';fill:#f86400;stroke-width:7.94579;paint-order:stroke fill markers;fill-opacity:1"
         d="m 100.62792,95.338543 -1.755385,4.477893 h 0.751523 l 0.467962,-1.216523 h 1.72754 l 0.47133,1.216523 h 0.7452 l -1.7402,-4.477893 z m 0.33252,0.775995 0.72071,1.961712 h -1.46296 z" /><path
         id="path29"
         style="font-weight:600;font-size:7.7239px;font-family:Rawline;-inkscape-font-specification:'Rawline, Semi-Bold';fill:#f86400;stroke-width:7.94579;paint-order:stroke fill markers;fill-opacity:1"
         d="m 90.739528,95.338543 -1.755385,4.477893 h 0.751523 l 0.467958,-1.216523 h 1.727957 l 0.470923,1.216523 h 0.745619 l -1.740197,-4.477893 z m 0.332932,0.775995 0.720299,1.961712 h -1.462545 z" /><path
         id="text27"
         style="font-weight:600;font-size:7.7239px;font-family:Rawline;-inkscape-font-specification:'Rawline, Semi-Bold';fill:#f86400;stroke-width:7.94579;paint-order:stroke fill markers;fill-opacity:1"
         d="m 79.243883,95.338543 v 4.477893 h 0.705527 v -1.558315 h 1.210197 c 0.19504,0 0.377731,-0.04107 0.548133,-0.123218 0.172456,-0.08212 0.316278,-0.191099 0.431249,-0.326597 0.117024,-0.135507 0.208158,-0.291404 0.273855,-0.467959 0.0657,-0.176563 0.09874,-0.358352 0.09874,-0.545179 0,-0.240214 -0.05851,-0.471135 -0.175538,-0.69287 -0.117023,-0.221727 -0.284515,-0.404422 -0.502139,-0.548136 -0.215571,-0.143714 -0.452749,-0.215619 -0.711434,-0.215619 z m 0.705527,0.625349 h 1.130023 c 0.195041,0 0.362532,0.07773 0.502139,0.233771 0.139609,0.156035 0.209295,0.355241 0.209295,0.597505 0,0.242254 -0.06387,0.442368 -0.19115,0.600452 -0.125236,0.158085 -0.286057,0.237144 -0.48315,0.237144 H 79.94941 Z" /><path
         id="path26"
         style="fill:#f86400;stroke:none;stroke-width:1.8649;stroke-dasharray:none;stroke-opacity:1;paint-order:stroke fill markers;fill-opacity:1"
         d="m 33.427321,59.931538 c -0.148902,0.0079 -0.298611,0.03621 -0.447266,0.08528 -0.534261,0.176323 -1.149058,0.766566 -1.265608,1.214975 -0.05627,0.216512 0.225647,1.854151 0.821365,4.770412 0.498928,2.442437 1.206812,5.905974 1.572926,7.696747 0.438343,2.144075 0.623901,3.297556 0.543652,3.377805 -0.259496,0.259496 -0.483297,-0.04092 -0.684275,-0.918589 -0.238946,-1.043454 -1.177191,-5.292568 -1.997487,-9.045783 -0.699118,-3.198781 -0.826605,-3.516514 -1.551224,-3.867297 -0.301061,-0.145743 -0.670487,-0.265097 -0.820861,-0.265097 -0.709904,0 -1.647651,0.737996 -1.822374,1.434151 -0.09182,0.365849 -0.07667,0.446696 1.328178,7.077401 1.199236,5.660269 1.331327,6.45175 1.099583,6.594975 -0.08089,0.05 -0.174581,0.06361 -0.208076,0.03012 -0.05948,-0.05948 -0.34341,-1.21097 -1.400173,-5.678403 -0.440659,-1.86288 -0.576579,-2.263116 -0.889658,-2.61969 -0.738585,-0.841204 -1.833747,-0.868098 -2.61868,-0.06426 -0.720625,0.737985 -0.710937,0.961092 0.235493,5.438033 1.62022,7.664216 2.669013,12.290635 3.011282,13.284483 0.903861,2.624583 3.144487,5.003651 5.809774,6.168392 0.508842,0.22237 0.981583,0.404744 1.050465,0.405731 0.06888,0.0017 0.674318,-1.289049 1.345505,-2.866465 0.671188,-1.577398 1.234107,-2.895768 1.250805,-2.929694 0.01671,-0.03391 -0.343372,-0.06179 -0.800172,-0.06179 -0.709184,0 -0.91871,-0.05447 -1.434319,-0.373255 -0.366372,-0.226515 -0.745514,-0.602373 -0.964004,-0.95577 -0.522049,-0.844392 -0.490419,-1.539121 0.14146,-3.111706 0.543421,-1.352422 2.703358,-6.351508 3.393789,-7.854688 0.239161,-0.520689 0.413742,-0.967594 0.388059,-0.993277 -0.04907,-0.04908 -0.918365,-3.979761 -2.162665,-9.778668 -1.055565,-4.91934 -1.162699,-5.288489 -1.664262,-5.728866 -0.375773,-0.329933 -0.814527,-0.489102 -1.261232,-0.465267 z m 4.985215,1.215646 c -0.303574,-0.0082 -0.613451,0.06171 -0.897227,0.221197 -0.569912,0.320308 -1.027592,0.945672 -1.027592,1.404041 0,0.259767 1.359864,6.933925 2.354424,11.555125 l 0.145838,0.677213 0.199327,-0.303957 c 0.457665,-0.698304 1.426,-1.765702 2.144333,-2.363504 0.565547,-0.470657 0.757519,-0.707256 0.727672,-0.896723 -0.155289,-0.985367 -1.925356,-8.838078 -2.078393,-9.220554 -0.263038,-0.657406 -0.900515,-1.054577 -1.568382,-1.072838 z m 10.410632,9.302976 c -1.759336,0.004 -1.990705,0.03146 -2.898747,0.344156 -3.356917,1.155954 -5.342594,2.816855 -6.658728,5.569742 -1.73139,3.621468 -4.258214,9.678126 -4.258214,10.206758 0,0.812667 0.627312,1.572995 1.511526,1.831805 0.525553,0.153829 1.465056,-0.06635 1.79866,-0.42154 0.227567,-0.242273 1.027064,-1.946072 2.480078,-5.285294 0.477345,-1.097011 0.728593,-1.436933 0.920438,-1.245088 0.04055,0.04057 0.07385,0.179707 0.07385,0.309174 0,0.129462 -1.59359,3.936475 -3.541307,8.46008 -3.864074,8.974369 -3.84652,8.921603 -3.254679,9.751418 0.591188,0.828909 1.684792,1.048349 2.562835,0.514369 0.378245,-0.23001 0.579307,-0.657873 4.294042,-9.13392 0.787955,-1.797899 1.521194,-3.336547 1.629274,-3.419181 0.246205,-0.188238 0.406897,-0.09622 0.406897,0.233136 0,0.139407 -1.30038,3.286463 -2.889663,6.993291 -1.589278,3.706837 -2.957625,6.974014 -3.040717,7.260424 -0.137482,0.47388 -0.124387,0.57236 0.144996,1.09554 0.186332,0.36187 0.45527,0.66035 0.725823,0.80539 0.252993,0.13562 0.679732,0.23044 1.037344,0.23044 0.544318,0 0.651749,-0.0482 1.032298,-0.46257 0.464524,-0.5059 0.637378,-0.8732 3.814985,-8.110718 1.191494,-2.713808 2.326617,-5.253299 2.522633,-5.64341 0.36719,-0.730776 0.722964,-0.93854 0.722964,-0.422202 0,0.356386 -0.136237,0.692786 -2.805562,6.929201 -1.413455,3.302299 -2.182326,5.250199 -2.215314,5.612629 -0.126854,1.39384 1.541057,2.35411 2.778478,1.59968 0.485463,-0.29597 0.609118,-0.55071 3.471838,-7.150746 2.326234,-5.363144 2.416083,-5.550904 2.658711,-5.550904 0.288148,0 0.217727,0.422747 -0.263244,1.579661 -1.960854,4.716523 -2.514729,6.141519 -2.514729,6.469999 0,0.562858 0.531837,1.38033 1.061738,1.63179 0.541356,0.25689 1.323367,0.20394 1.82305,-0.12347 0.461077,-0.3021 0.884555,-1.181742 3.651987,-7.584371 4.346395,-10.055671 4.242099,-9.754584 4.231974,-12.212157 -0.0078,-1.869552 -0.26955,-2.990899 -1.085117,-4.647785 -1.386565,-2.816902 -3.946589,-4.924389 -6.969748,-5.737612 -0.884585,-0.237955 -1.347585,-0.281393 -2.96065,-0.277715 z" /><path
         id="path15"
         style="font-weight:800;font-size:35.3161px;font-family:Rawline;-inkscape-font-specification:'Rawline, Ultra-Bold';fill:#f86400;stroke-width:2.84717;fill-opacity:1"
         d="m 82.876042,71.833643 c -1.367048,0.593533 -2.515089,1.370852 -3.443727,2.331788 -0.922857,0.946295 -1.57879,1.976514 -1.967827,3.091158 -0.389052,1.114652 -0.556949,2.291312 -0.504363,3.52946 0.05836,1.223518 0.344173,2.427136 0.857971,3.61053 0.482793,1.111988 1.14742,2.083937 1.993988,2.916744 0.846568,0.832787 1.803622,1.472505 2.870346,1.918721 1.076932,0.441789 2.275788,0.648577 3.597297,0.620422 1.327283,-0.04279 2.664266,-0.356654 4.010909,-0.941331 1.846504,-0.801703 3.285711,-1.899517 4.317459,-3.293214 1.031731,-1.393691 1.59147,-2.897228 1.678768,-4.51136 l -4.787639,0.659969 c 0.01789,0.683371 -0.225376,1.35257 -0.729018,2.007733 -0.503674,0.655169 -1.132845,1.146429 -1.887773,1.474197 -0.958952,0.416356 -1.926184,0.479062 -2.901638,0.187211 -0.965247,-0.296274 -1.711674,-0.954386 -2.239306,-1.974156 l 12.165652,-5.282003 c -0.157546,-0.586335 -0.349329,-1.139737 -0.575221,-1.66003 -0.491655,-1.132395 -1.156011,-2.117267 -1.992389,-2.95449 -0.830598,-0.851858 -1.778379,-1.51318 -2.84376,-1.984232 -1.065374,-0.471051 -2.258856,-0.692439 -3.580365,-0.664294 -1.325936,0.01794 -2.672333,0.323646 -4.039364,0.917177 z m 1.507036,3.637749 c 0.958961,-0.416351 1.899899,-0.454827 2.823004,-0.116 0.933288,0.3344 1.6748,0.99464 2.224168,1.980723 l -7.146493,3.102818 c -0.345342,-1.074663 -0.326843,-2.064881 0.05591,-2.970661 0.392919,-0.910208 1.074273,-1.576091 2.043445,-1.99688 z" /><path
         style="font-weight:800;font-size:35.3161px;font-family:Rawline;-inkscape-font-specification:'Rawline, Ultra-Bold';fill:#f86400;stroke-width:2.84717;fill-opacity:1"
         d="m 106.0881,89.512145 q -2.20211,0 -4.0539,-0.750722 -1.83509,-0.767408 -3.052924,-2.051977 -1.201158,-1.28456 -1.868462,-2.969507 -0.667303,-1.684958 -0.667303,-3.55342 0,-1.868452 0.650613,-3.536723 0.667311,-1.684949 1.868461,-2.969515 1.217835,-1.284566 3.052935,-2.035285 1.85178,-0.75072 4.07058,-0.75072 2.98618,0 5.13824,1.284566 2.15206,1.284565 3.25313,3.469995 l -5.32177,1.601537 q -1.05102,-1.701634 -3.10298,-1.701634 -1.71831,0 -2.86942,1.284566 -1.13441,1.284567 -1.13441,3.353213 0,2.085344 1.1511,3.403271 1.15111,1.317936 2.85273,1.317936 1.01765,0 1.86846,-0.483801 0.85082,-0.483792 1.26788,-1.284569 l 5.33847,1.634911 q -1.03434,2.152061 -3.23645,3.4533 -2.2021,1.284578 -5.20498,1.284578 z"
         id="path6" /><path
         style="font-weight:800;font-size:35.3161px;font-family:Rawline;-inkscape-font-specification:'Rawline, Ultra-Bold';fill:#f86400;stroke-width:2.84717;fill-opacity:1"
         d="m 78.500393,88.227567 q -2.969506,1.284578 -5.505273,1.284578 -1.067691,0 -1.951872,-0.266929 -0.8675,-0.25024 -1.568172,-0.800767 -0.683988,-0.550527 -1.084373,-1.484763 -0.383701,-0.950905 -0.383701,-2.218786 v -9.358987 h -2.285525 v -4.1373 h 2.285525 v -5.705474 h 5.471916 v 5.705474 h 3.6535 v 4.1373 h -3.6535 v 7.473836 q 0,1.668269 1.56817,1.668269 1.017649,0 2.385615,-0.633941 z"
         id="text2" /><path
         style="font-weight:600;font-size:7.7239px;font-family:Rawline;-inkscape-font-specification:'Rawline, Semi-Bold';fill:#f86400;stroke-width:7.94579;paint-order:stroke fill markers;fill-opacity:1"
         d="m 172.69263,96.650532 v 3.165795 h -0.70522 v -4.477694 h 0.57896 l 2.53757,3.236637 v -3.23048 h 0.71138 v 4.471537 h -0.61899 z"
         id="path49" /><path
         style="font-weight:600;font-size:7.7239px;font-family:Rawline;-inkscape-font-specification:'Rawline, Semi-Bold';fill:#f86400;stroke-width:7.94579;paint-order:stroke fill markers;fill-opacity:1"
         d="m 168.97578,99.816327 v -4.477694 h 0.70523 v 4.477694 z"
         id="path48" /><path
         style="font-weight:600;font-size:7.7239px;font-family:Rawline;-inkscape-font-specification:'Rawline, Semi-Bold';fill:#f86400;stroke-width:7.94579;paint-order:stroke fill markers;fill-opacity:1"
         d="m 166.4754,96.391848 q -0.14474,-0.160143 -0.49274,-0.307964 -0.348,-0.14782 -0.71754,-0.14782 -0.4373,0 -0.65594,0.16322 -0.21557,0.160143 -0.21557,0.455776 0,0.09239 0.0247,0.166299 0.0247,0.0739 0.0615,0.132421 0.04,0.05545 0.11702,0.107785 0.077,0.05234 0.1509,0.0893 0.077,0.03699 0.20633,0.08011 0.13242,0.04001 0.24636,0.0708 0.11395,0.02777 0.29872,0.0739 0.29565,0.0708 0.50506,0.141664 0.20941,0.06778 0.40342,0.175535 0.19401,0.104709 0.31104,0.237127 0.11702,0.129342 0.18478,0.317198 0.0708,0.187848 0.0708,0.428061 0,0.267919 -0.0862,0.48349 -0.0832,0.215571 -0.23097,0.363388 -0.14782,0.147827 -0.35723,0.249445 -0.20941,0.09859 -0.44962,0.144739 -0.24021,0.04312 -0.51737,0.04312 -0.51121,0 -0.98854,-0.15397 -0.47734,-0.157055 -0.8592,-0.449621 l 0.32335,-0.606673 q 0.19402,0.20017 0.63131,0.388025 0.44039,0.184781 0.90541,0.184781 0.41881,0 0.64362,-0.147827 0.22789,-0.147816 0.22789,-0.424979 0,-0.110863 -0.0339,-0.200169 -0.0339,-0.08931 -0.11704,-0.160142 -0.0831,-0.0739 -0.17245,-0.126264 -0.0862,-0.05234 -0.24944,-0.107785 -0.16014,-0.05545 -0.29564,-0.09238 -0.13242,-0.03699 -0.36031,-0.09547 -0.35415,-0.09239 -0.58512,-0.187848 -0.23097,-0.09547 -0.40959,-0.234048 -0.17553,-0.138586 -0.2556,-0.326434 -0.0801,-0.190934 -0.0801,-0.449619 0,-0.323355 0.12319,-0.582039 0.12626,-0.26177 0.34491,-0.431147 0.21864,-0.169371 0.51429,-0.258685 0.29564,-0.0893 0.64363,-0.0893 0.82532,0 1.51207,0.505055 z"
         id="path47" /><path
         style="font-weight:600;font-size:7.7239px;font-family:Rawline;-inkscape-font-specification:'Rawline, Semi-Bold';fill:#f86400;stroke-width:7.94579;paint-order:stroke fill markers;fill-opacity:1"
         d="m 158.40096,96.650532 v 3.165795 h -0.70522 v -4.477694 h 0.57896 l 2.53756,3.236637 v -3.23048 h 0.7114 v 4.471537 h -0.619 z"
         id="path46" /><path
         style="font-weight:600;font-size:7.7239px;font-family:Rawline;-inkscape-font-specification:'Rawline, Semi-Bold';fill:#f86400;stroke-width:7.94579;paint-order:stroke fill markers;fill-opacity:1"
         d="m 155.66959,99.191177 v 0.62515 h -3.07033 v -4.477694 h 3.01489 v 0.625153 h -2.30968 v 1.271863 h 1.99865 v 0.588196 h -1.99865 v 1.367332 z"
         id="path45" /><path
         style="font-weight:600;font-size:7.7239px;font-family:Rawline;-inkscape-font-specification:'Rawline, Semi-Bold';fill:#f86400;stroke-width:7.94579;paint-order:stroke fill markers;fill-opacity:1"
         d="m 146.42534,99.191177 v 0.62515 H 143.355 v -4.477694 h 3.01492 v 0.625153 h -2.30969 v 1.271863 h 1.99865 v 0.588196 h -1.99865 v 1.367332 z"
         id="path44" /><path
         style="font-weight:600;font-size:7.7239px;font-family:Rawline;-inkscape-font-specification:'Rawline, Semi-Bold';fill:#f86400;stroke-width:7.94579;paint-order:stroke fill markers;fill-opacity:1"
         d="m 125.02029,99.816327 v -3.190431 l -1.31807,2.420541 h -0.41573 l -1.32423,-2.420541 v 3.190431 h -0.70523 v -4.477694 h 0.75758 l 1.48128,2.737739 1.48129,-2.737739 h 0.75756 v 4.477694 z"
         id="path39" /><path
         style="font-weight:600;font-size:7.7239px;font-family:Rawline;-inkscape-font-specification:'Rawline, Semi-Bold';fill:#f86400;stroke-width:7.94579;paint-order:stroke fill markers;fill-opacity:1"
         d="m 104.88665,99.816327 v -4.477694 h 2.98412 v 0.625153 h -2.27889 v 1.336534 h 1.90626 v 0.585117 h -1.90626 v 1.93089 z"
         id="path34" /><path
         style="font-weight:600;font-size:7.7239px;font-family:Rawline;-inkscape-font-specification:'Rawline, Semi-Bold';fill:#f86400;stroke-width:7.94579;paint-order:stroke fill markers;fill-opacity:1"
         d="m 97.862565,95.963786 h -1.487449 v 3.852541 H 95.660648 V 95.963786 H 94.16705 v -0.625153 h 3.695515 z"
         id="path31" /><path
         style="font-weight:600;font-size:7.7239px;font-family:Rawline;-inkscape-font-specification:'Rawline, Semi-Bold';fill:#f86400;stroke-width:7.94579;paint-order:stroke fill markers;fill-opacity:1"
         d="m 84.466775,99.816327 v -4.477694 h 0.705224 v 3.852544 h 2.405166 v 0.62515 z"
         id="path28" /><path
         style="font-weight:800;font-size:35.3161px;font-family:Rawline;-inkscape-font-specification:'Rawline, Ultra-Bold';fill:#f86400;stroke-width:2.84717;fill-opacity:1"
         d="m 190.70626,89.459635 q -2.35226,0 -4.52101,-0.767399 -2.15206,-0.767404 -3.63682,-2.202115 l 1.86847,-3.453318 q 3.31983,2.43567 6.12254,2.43567 2.21878,0 2.21878,-1.401339 0,-0.700677 -0.86749,-1.101066 -0.43376,-0.20018 -2.23548,-0.750714 -0.98429,-0.333644 -1.65158,-0.567206 -0.65063,-0.233562 -1.36798,-0.550534 -0.70067,-0.316971 -1.13442,-0.600569 -0.43376,-0.283608 -0.86751,-0.667306 -0.41707,-0.383698 -0.65062,-0.800776 -0.21689,-0.433736 -0.35033,-0.967587 -0.13347,-0.550533 -0.13347,-1.201157 0,-2.702586 2.03528,-4.354167 2.03529,-1.668273 5.45523,-1.668273 4.08727,0 6.88994,2.535768 l -2.11869,3.419936 q -2.90277,-2.01859 -5.05484,-2.01859 -0.96759,0 -1.55149,0.350327 -0.56721,0.350343 -0.56721,1.084384 0,0.683987 0.60058,1.051004 0.60057,0.367016 2.2021,0.817459 1.23452,0.383689 2.03529,0.667297 0.80077,0.266917 1.6349,0.633941 0.83413,0.367008 1.31792,0.750714 0.48381,0.383716 0.88419,0.900876 0.41707,0.500472 0.58389,1.151095 0.18352,0.633951 0.18352,1.434719 0,2.719267 -1.98524,4.287432 -1.96857,1.551494 -5.33845,1.551494 z"
         id="path14" /><path
         id="path13"
         style="font-weight:800;font-size:35.3161px;font-family:Rawline;-inkscape-font-specification:'Rawline, Ultra-Bold';fill:#f86400;stroke-width:2.84717;fill-opacity:1"
         d="m 172.39469,70.330064 c -2.80268,0 -5.39932,0.778161 -7.79052,2.335209 l 1.6513,3.470059 c 1.01208,-0.678429 1.95214,-1.173401 2.81965,-1.484807 0.87862,-0.322537 1.80156,-0.483437 2.76915,-0.483437 2.4023,0 3.60353,1.011945 3.60353,3.03611 v 0.783897 c -1.11217,-0.47823 -2.44693,-0.717401 -4.00399,-0.717401 -2.27996,0 -4.13708,0.556099 -5.57179,1.66828 -1.43471,1.101059 -2.15223,2.536094 -2.15223,4.304467 0,1.623775 0.59525,2.980549 1.78527,4.070482 1.19004,1.089934 2.68033,1.634789 4.47094,1.634789 1.21227,0 2.36902,-0.267045 3.47007,-0.800888 1.11218,-0.544966 2.06298,-1.323624 2.85264,-2.335715 l 0.1,0.784412 c 0.28917,1.523677 1.40677,2.285207 3.35309,2.285207 0.70067,0 1.47396,-0.08851 2.3192,-0.266472 v -4.537923 c -0.43374,-0.03337 -0.73993,-0.161012 -0.91788,-0.38346 -0.16682,-0.233544 -0.24996,-0.622869 -0.24996,-1.167852 v -4.671397 c 0,-2.424553 -0.74541,-4.281685 -2.23572,-5.5718 -1.47919,-1.301256 -3.57013,-1.95176 -6.27271,-1.95176 z m -0.033,10.009241 c 0.94536,0 1.97394,0.194657 3.08611,0.583921 v 1.601795 c 0,0.467124 -0.28905,0.934222 -0.86739,1.401329 -0.37814,0.333662 -0.83986,0.600219 -1.38482,0.8004 -0.53385,0.200199 -1.07334,0.300461 -1.6183,0.300461 -0.81188,0 -1.46777,-0.216675 -1.96826,-0.650409 -0.48934,-0.444876 -0.73439,-0.978985 -0.73439,-1.601812 0,-0.711785 0.32818,-1.295784 0.98438,-1.751767 0.65617,-0.456 1.4906,-0.683918 2.50267,-0.683918 z" /><path
         style="font-weight:800;font-size:35.3161px;font-family:Rawline;-inkscape-font-specification:'Rawline, Ultra-Bold';fill:#f86400;stroke-width:2.84717;fill-opacity:1"
         d="m 164.23811,75.351323 q -2.05199,0.03337 -3.63684,0.683987 -1.58485,0.633951 -2.28552,1.818417 v 10.760324 h -5.45523 V 70.680176 h 5.02148 v 3.620135 q 0.93425,-1.785036 2.38563,-2.836057 1.45138,-1.050995 3.0696,-1.067686 0.70067,0 0.90088,0.03337 z"
         id="path11" /><path
         id="path10"
         style="font-weight:800;font-size:35.3161px;font-family:Rawline;-inkscape-font-specification:'Rawline, Ultra-Bold';fill:#f86400;stroke-width:2.84717;fill-opacity:1"
         d="m 133.50804,63.673399 v 24.940857 h 4.73789 v -2.969622 c 0.61171,1.05657 1.42899,1.873858 2.45219,2.452188 1.02321,0.567214 2.21318,0.85089 3.57004,0.85089 1.56818,0 2.99196,-0.400577 4.27097,-1.201337 1.29014,-0.811884 2.2962,-1.91825 3.01913,-3.319588 0.72292,-1.412472 1.08435,-2.975155 1.08435,-4.687916 0,-1.723875 -0.33356,-3.30318 -1.00087,-4.737891 -0.65619,-1.434718 -1.58449,-2.568951 -2.78564,-3.403083 -1.19004,-0.845256 -2.52478,-1.267833 -4.004,-1.267833 -1.31236,0 -2.47447,0.289063 -3.48656,0.867393 -1.01209,0.567206 -1.81325,1.373249 -2.40269,2.418687 v -9.942745 z m 9.49229,11.311079 c 1.14554,0 2.10174,0.46709 2.86914,1.401331 0.77853,0.934222 1.16784,2.051824 1.16784,3.353062 0,1.312373 -0.40595,2.407958 -1.21784,3.286595 -0.80077,0.878627 -1.82934,1.317826 -3.0861,1.317826 -0.76741,0 -1.50156,-0.227901 -2.20223,-0.68391 -0.68954,-0.455992 -1.21239,-1.061991 -1.56829,-1.818262 v -3.754045 c 0.38927,-0.911974 0.94538,-1.656883 1.66828,-2.235213 0.73404,-0.578312 1.52394,-0.867384 2.3692,-0.867384 z" /><path
         style="font-weight:800;font-size:35.3161px;font-family:Rawline;-inkscape-font-specification:'Rawline, Ultra-Bold';fill:#f86400;stroke-width:2.84717;fill-opacity:1"
         d="M 127.37063,88.614051 V 70.680176 h 5.45524 v 17.933875 z"
         id="path8" /><path
         style="font-weight:800;font-size:35.3161px;font-family:Rawline;-inkscape-font-specification:'Rawline, Ultra-Bold';fill:#f86400;stroke-width:2.84717;fill-opacity:1"
         d="M 127.37063,68.628206 V 63.67346 h 5.45524 v 4.954746 z"
         id="path7" /><path
         style="font-weight:800;font-size:35.3161px;font-family:Rawline;-inkscape-font-specification:'Rawline, Ultra-Bold';fill:#f86400;stroke-width:2.84717;fill-opacity:1"
         d="m 117.3954,63.67346 h 5.45524 v 18.551125 q 0,2.085335 1.56817,2.085335 0.91755,0 1.98522,-0.517161 l 0.71735,4.103933 q -1.01764,0.467116 -2.36892,0.734032 -1.33461,0.283608 -2.48571,0.283608 -2.33558,0 -3.60346,-1.234521 -1.26789,-1.23452 -1.26789,-3.536717 z"
         id="text3" /></g></g></svg>
