<?xml version="1.0" encoding="UTF-8" standalone="no"?>
<!-- Created with Inkscape (http://www.inkscape.org/) -->

<svg
   width="200mm"
   height="200mm"
   viewBox="0 0 200 200"
   version="1.1"
   id="svg1"
   inkscape:version="1.4 (86a8ad7, 2024-10-11)"
   sodipodi:docname="Logo2TecLibras.svg"
   xmlns:inkscape="http://www.inkscape.org/namespaces/inkscape"
   xmlns:sodipodi="http://sodipodi.sourceforge.net/DTD/sodipodi-0.dtd"
   xmlns="http://www.w3.org/2000/svg"
   xmlns:svg="http://www.w3.org/2000/svg">
  <sodipodi:namedview
     id="namedview1"
     pagecolor="#ffffff"
     bordercolor="#000000"
     borderopacity="0.25"
     inkscape:showpageshadow="2"
     inkscape:pageopacity="0.0"
     inkscape:pagecheckerboard="0"
     inkscape:deskcolor="#d1d1d1"
     inkscape:document-units="mm"
     showgrid="true"
     inkscape:zoom="0.48693448"
     inkscape:cx="115.00521"
     inkscape:cy="448.72567"
     inkscape:window-width="1920"
     inkscape:window-height="991"
     inkscape:window-x="-9"
     inkscape:window-y="-9"
     inkscape:window-maximized="1"
     inkscape:current-layer="layer1">
    <inkscape:grid
       id="grid1"
       units="mm"
       originx="0"
       originy="0"
       spacingx="0.99999999"
       spacingy="0.99999999"
       empcolor="#0099e5"
       empopacity="0.30196078"
       color="#0099e5"
       opacity="0.14901961"
       empspacing="5"
       enabled="true"
       visible="true" />
  </sodipodi:namedview>
  <defs
     id="defs1" />
  <g
     inkscape:label="Camada 1"
     inkscape:groupmode="layer"
     id="layer1">
    <path
       style="fill:#b3b3b3;stroke-width:0.415867"
       d="m 112.07105,178.60968 c -1.45048,-0.57483 -2.78972,-1.5531 -4.05936,-2.96524 l -1.89472,-2.1074 -0.84289,1.07156 c -0.46358,0.58934 -2.05205,1.66682 -3.52995,2.39439 -2.395821,1.17945 -2.970843,1.30005 -5.3053,1.11266 -3.038463,-0.24389 -4.860256,-1.05949 -7.086456,-3.17254 -3.169298,-3.0082 -4.336944,-7.28444 -3.033544,-11.10971 0.37265,-1.09366 0.677543,-2.1423 0.677543,-2.33026 0,-0.18799 -0.888916,-0.3459 -1.975369,-0.35093 -3.373375,-0.0155 -7.52155,-2.50551 -9.058189,-5.43712 -0.534095,-1.01896 -0.797575,-1.09484 -4.68619,-1.34969 -15.51338,-1.01663 -29.579446,-10.12409 -37.03338,-23.97824 -3.677381,-6.83491 -4.449931,-10.66808 -9.596851,-47.61681 -3.20224,-22.988264 -3.405424,-24.893504 -2.90405,-27.231336 0.786796,-3.6687 3.692658,-7.077653 7.327873,-8.596537 1.556417,-0.650313 6.158783,-0.632629 7.672585,0.02943 0.624846,0.273299 0.668822,-0.08563 0.464603,-3.791713 -0.209632,-3.804342 -0.150492,-4.24172 0.837023,-6.190492 2.238664,-4.417791 6.146248,-6.657594 10.982225,-6.294933 1.55591,0.116681 3.249997,0.347323 3.764632,0.512537 0.82213,0.263927 0.936196,0.155678 0.939766,-0.891758 0.01087,-3.182086 3.243266,-7.329672 7.011453,-8.99652 2.352265,-1.040516 6.52485,-0.841772 9.014071,0.429343 2.406563,1.228912 5.035972,4.240167 5.589865,6.401647 0.788045,3.075191 0.763958,3.040155 1.581299,2.300469 1.500568,-1.357991 4.42512,-2.348419 6.94963,-2.353548 5.358695,-0.01094 9.566071,3.504677 10.941123,9.142087 0.341532,1.400237 4.653902,30.222612 4.653902,31.105094 0,0.08389 1.263216,-1.008266 2.807106,-2.426912 7.35527,-6.758504 15.06089,-10.611781 24.51958,-12.261233 13.42112,-2.340443 28.60652,2.526545 38.38141,12.30142 12.24735,12.24737 16.3758,29.739355 10.92294,46.279885 -1.72238,5.22461 -27.49663,56.59863 -29.57554,58.95086 -2.21444,2.50558 -5.10358,3.76335 -8.75633,3.81199 -3.33453,0.0445 -5.35225,-0.81553 -7.79233,-3.32113 -1.91557,-1.96699 -1.94198,-1.95843 -3.46996,1.12659 -2.03777,4.11426 -5.20689,6.27072 -9.57045,6.51225 -2.02295,0.11198 -3.24782,-0.0661 -4.86777,-0.7082 z m 6.4651,-8.01164 c 0.24839,-0.29926 4.8738,-9.28176 10.27871,-19.9611 10.45671,-20.66095 10.64463,-20.95144 13.82325,-21.36742 1.76799,-0.23138 4.06273,1.05526 4.98245,2.7936 1.19879,2.26581 0.50333,4.30549 -6.07978,17.83025 -6.59789,13.5552 -7.08215,15.00919 -5.48147,16.4578 1.09349,0.98958 3.65497,0.60207 4.68206,-0.70835 1.59213,-2.03128 26.52651,-52.65291 27.8126,-56.46489 1.18193,-3.50335 1.35452,-4.61133 1.52396,-9.784167 0.28829,-8.800044 -1.29308,-14.912305 -5.56765,-21.520109 -4.04197,-6.248229 -8.94033,-10.349337 -16.15256,-13.523608 -5.00121,-2.201141 -8.87398,-2.996859 -14.58565,-2.996859 -12.06332,0 -21.8499,4.965407 -31.14689,15.80296 -8.374064,9.761692 -16.876408,24.083643 -16.876408,28.427813 0,1.08399 0.285391,1.67876 1.120906,2.33596 2.157239,1.69689 2.869007,1.18661 7.19644,-5.15934 2.172915,-3.18646 4.440299,-6.151735 5.038636,-6.5895 2.151036,-1.573754 5.398466,-0.921037 6.743166,1.355348 1.33779,2.264699 0.93541,3.923572 -2.47326,10.195972 -5.33216,9.81194 -20.952829,41.39275 -20.952829,42.36104 0,2.31707 2.838533,3.86459 4.768781,2.59984 0.661474,-0.43341 3.99417,-6.59799 9.998839,-18.49511 9.500629,-18.82372 10.415029,-20.25546 13.227869,-20.71194 3.82564,-0.62081 6.86085,3.05768 5.66701,6.86802 -0.26154,0.8347 -5.25157,11.24893 -11.08894,23.14273 -5.837372,11.89382 -10.70969,22.33109 -10.827357,23.19394 -0.286424,2.10044 0.701666,3.21364 2.852458,3.21364 1.294042,0 1.760967,-0.24311 2.595943,-1.35157 0.559966,-0.74336 5.551066,-10.42502 11.091326,-21.51478 5.54027,-11.08977 10.69778,-21.13958 11.46115,-22.33292 2.08308,-3.25638 4.57048,-4.21694 7.28499,-2.81321 1.48763,0.76929 2.8683,2.88472 2.87047,4.39809 0.002,1.8769 -0.99332,4.1063 -10.18269,22.79276 -4.92012,10.00496 -8.94566,18.64755 -8.94566,19.20576 0,1.85045 1.09375,2.86346 3.09167,2.86346 0.98831,0 2.00011,-0.24484 2.24846,-0.54411 z M 75.352088,145.73021 c 0,-0.25296 3.087816,-6.73724 6.861813,-14.40953 3.773993,-7.67229 6.861808,-13.99442 6.861808,-14.04915 0,-0.0547 -0.688405,-0.2287 -1.529792,-0.38655 -5.512431,-1.03414 -10.114492,-6.21965 -10.114492,-11.39677 0,-3.98433 4.143305,-12.699358 10.655034,-22.411796 L 92.342365,76.728599 91.315799,69.14486 C 89.356613,54.671359 86.959823,38.854363 86.570727,37.830965 c -0.739344,-1.944617 -3.693375,-2.250246 -5.239251,-0.542074 -0.898062,0.992354 -0.755922,2.488813 2.336192,24.595408 2.248491,16.07523 2.415269,18.40975 1.448732,20.278828 -0.630431,1.219113 -3.2911,2.894489 -4.596747,2.894489 -1.302313,0 -3.891105,-1.802361 -4.533641,-3.156412 -0.861852,-1.816215 -1.116821,-3.265105 -3.762274,-21.379757 -3.818801,-26.149126 -4.397429,-29.70106 -4.988028,-30.61913 -0.786316,-1.222326 -2.439669,-1.556651 -3.917892,-0.792232 -2.231379,1.153898 -2.367282,-1.101232 1.65487,27.460627 3.570226,25.352669 3.618088,25.839837 2.723922,27.724144 -1.378562,2.905104 -5.10143,3.972166 -7.644351,2.191029 C 57.925965,84.99657 57.528962,83.315229 54.756143,64.056321 51.644964,42.447316 51.246805,40.303045 50.155044,39.277397 c -1.212899,-1.139459 -3.605536,-0.822053 -4.538683,0.602115 -0.722327,1.102409 -0.613504,2.150052 2.684079,25.840279 2.733463,19.637513 2.699824,19.245845 1.802897,20.993015 -0.88223,1.718544 -3.138732,3.335839 -4.651229,3.333675 -1.370223,-0.002 -3.534104,-1.307847 -4.428155,-2.672356 C 40.069092,85.916838 39.828774,84.715086 37.924575,71.87514 35.378182,54.704892 35.443683,54.951338 33.301353,54.480797 c -1.100725,-0.241749 -1.499998,-0.08876 -2.57573,0.986963 l -1.273074,1.273079 0.517783,4.489478 c 0.284777,2.469211 1.632366,12.436631 2.99464,22.149822 4.870941,34.730511 5.279378,36.869231 8.131991,42.582111 2.010417,4.02622 3.646627,6.30445 6.78246,9.44381 6.780963,6.78858 15.459622,10.59874 24.457627,10.73755 1.953308,0.0301 3.015038,-0.11545 3.015038,-0.4134 z"
       id="path1" />
    <g
       id="g2"
       transform="matrix(1.1848063,0,0,1.1848063,-127.44232,-96.092557)">
      <path
         id="path50"
         style="font-weight:600;font-size:7.7239px;font-family:Rawline;-inkscape-font-specification:'Rawline, Semi-Bold';fill:#1a1a1a;stroke-width:7.94579;paint-order:stroke fill markers"
         d="m 240.08102,179.04734 c -0.3018,0 -0.58721,0.0625 -0.85616,0.18777 -0.26895,0.12524 -0.49766,0.29184 -0.68655,0.49919 -0.18888,0.20736 -0.33894,0.44947 -0.44981,0.72662 -0.1088,0.27511 -0.16287,0.56053 -0.16287,0.85617 0,0.22789 0.0326,0.45389 0.0983,0.67768 0.0658,0.22172 0.16127,0.42809 0.28651,0.61902 0.1273,0.19094 0.27603,0.35891 0.44644,0.50467 0.17246,0.14577 0.37166,0.26099 0.5975,0.34517 0.22585,0.0821 0.46392,0.12321 0.7144,0.12321 0.30179,0 0.58722,-0.0616 0.85616,-0.18482 0.26895,-0.12523 0.49675,-0.2914 0.68358,-0.49876 0.18683,-0.20736 0.33468,-0.44899 0.44349,-0.72409 0.11086,-0.27511 0.16625,-0.56011 0.16625,-0.85575 0,-0.28126 -0.0522,-0.55774 -0.15696,-0.82874 -0.10477,-0.27306 -0.24853,-0.51605 -0.43125,-0.72958 -0.18067,-0.21557 -0.40625,-0.3893 -0.67726,-0.5207 -0.271,-0.13139 -0.56177,-0.19706 -0.87178,-0.19706 z m -0.005,0.64392 c 0.20941,0 0.40328,0.0451 0.5819,0.13545 0.18066,0.0883 0.33072,0.20844 0.44982,0.36036 0.12112,0.14987 0.21537,0.32319 0.28313,0.52028 0.0698,0.19504 0.10465,0.39827 0.10465,0.60974 0,0.20325 -0.0326,0.40156 -0.0984,0.59455 -0.0636,0.19299 -0.15429,0.36721 -0.27132,0.52324 -0.11703,0.15398 -0.26667,0.27816 -0.4494,0.37259 -0.18272,0.0945 -0.38283,0.14178 -0.60045,0.14178 -0.28331,0 -0.53611,-0.0781 -0.75784,-0.23418 -0.22173,-0.15604 -0.39013,-0.35705 -0.5051,-0.60341 -0.11292,-0.24637 -0.16921,-0.51125 -0.16921,-0.79457 0,-0.20325 0.033,-0.40156 0.0987,-0.59454 0.0658,-0.19299 0.15773,-0.36631 0.27682,-0.52029 0.11907,-0.15398 0.27004,-0.27726 0.45277,-0.36964 0.18478,-0.0944 0.38621,-0.14136 0.60383,-0.14136 z" />
      <path
         id="path42"
         style="font-weight:600;font-size:7.7239px;font-family:Rawline;-inkscape-font-specification:'Rawline, Semi-Bold';fill:#1a1a1a;stroke-width:7.94579;paint-order:stroke fill markers"
         d="m 197.63417,179.07815 v 4.47789 h 1.58913 c 0.66108,0 1.18949,-0.20457 1.58574,-0.61312 0.39828,-0.41061 0.59751,-0.95465 0.59751,-1.63215 0,-0.31207 -0.0469,-0.60151 -0.14136,-0.86841 -0.0924,-0.26896 -0.22816,-0.50481 -0.40678,-0.70806 -0.17862,-0.2053 -0.40865,-0.36565 -0.68991,-0.48062 -0.27922,-0.11702 -0.59414,-0.17553 -0.9452,-0.17553 z m 0.7051,0.62534 h 0.88403 c 0.45576,0 0.8131,0.14875 1.0718,0.44645 0.26072,0.29563 0.39073,0.68246 0.39073,1.16083 0,0.31 -0.0554,0.58648 -0.16626,0.82873 -0.11086,0.24226 -0.27794,0.43522 -0.50171,0.57894 -0.22174,0.14166 -0.48661,0.21224 -0.79456,0.21224 h -0.88403 z" />
      <path
         id="path40"
         style="font-weight:600;font-size:7.7239px;font-family:Rawline;-inkscape-font-specification:'Rawline, Semi-Bold';fill:#1a1a1a;stroke-width:7.94579;paint-order:stroke fill markers"
         d="m 189.42144,179.07815 -1.75538,4.47789 h 0.75152 l 0.46796,-1.21652 h 1.72795 l 0.4709,1.21652 h 0.74563 l -1.74019,-4.47789 z m 0.33292,0.77599 0.7203,1.96171 h -1.46254 z" />
      <path
         id="path37"
         style="font-weight:600;font-size:7.7239px;font-family:Rawline;-inkscape-font-specification:'Rawline, Semi-Bold';fill:#1a1a1a;stroke-width:7.94579;paint-order:stroke fill markers"
         d="m 175.88434,179.07815 v 4.47789 h 0.70511 v -1.55832 h 1.04099 l 0.97306,1.55832 h 0.79456 l -1.05323,-1.70305 c 0.26278,-0.0842 0.47407,-0.24854 0.63421,-0.49286 0.16013,-0.24637 0.24052,-0.52151 0.24052,-0.82536 0,-0.17862 -0.0353,-0.35506 -0.10509,-0.52957 -0.0699,-0.17451 -0.16407,-0.3304 -0.28314,-0.46796 -0.11909,-0.13755 -0.26692,-0.24876 -0.44349,-0.33293 -0.17451,-0.0842 -0.35942,-0.12616 -0.55447,-0.12616 z m 0.70511,0.62534 h 1.19796 c 0.18887,0 0.35504,0.0822 0.49876,0.24643 0.14371,0.1622 0.21563,0.35696 0.21563,0.58485 0,0.23199 -0.0635,0.43031 -0.19073,0.59455 -0.1273,0.16219 -0.28854,0.24305 -0.48358,0.24305 h -1.23804 z" />
      <path
         id="path35"
         style="font-weight:600;font-size:7.7239px;font-family:Rawline;-inkscape-font-specification:'Rawline, Semi-Bold';fill:#1a1a1a;stroke-width:7.94579;paint-order:stroke fill markers"
         d="m 171.71784,179.04734 c -0.30179,0 -0.58721,0.0625 -0.85616,0.18777 -0.26895,0.12524 -0.49808,0.29184 -0.68696,0.49919 -0.18888,0.20736 -0.33852,0.44947 -0.4494,0.72662 -0.1088,0.27511 -0.16329,0.56053 -0.16329,0.85617 0,0.22789 0.033,0.45389 0.0987,0.67768 0.0658,0.22172 0.16086,0.42809 0.2861,0.61902 0.12729,0.19094 0.27646,0.35891 0.44685,0.50467 0.17247,0.14577 0.37125,0.26099 0.59709,0.34517 0.22584,0.0821 0.46433,0.12321 0.71481,0.12321 0.3018,0 0.58679,-0.0616 0.85574,-0.18482 0.26895,-0.12523 0.49719,-0.2914 0.68401,-0.49876 0.18683,-0.20736 0.33467,-0.44899 0.44349,-0.72409 0.11086,-0.27511 0.16625,-0.56011 0.16625,-0.85575 0,-0.28126 -0.0526,-0.55774 -0.15739,-0.82874 -0.10466,-0.27306 -0.24811,-0.51605 -0.43083,-0.72958 -0.18066,-0.21557 -0.40668,-0.3893 -0.67768,-0.5207 -0.271,-0.13139 -0.56134,-0.19706 -0.87136,-0.19706 z m -0.007,0.64392 c 0.20942,0 0.4037,0.0451 0.58232,0.13545 0.18067,0.0883 0.33031,0.20844 0.4494,0.36036 0.12112,0.14987 0.21537,0.32319 0.28313,0.52028 0.0698,0.19504 0.10509,0.39827 0.10509,0.60974 0,0.20325 -0.033,0.40156 -0.0987,0.59455 -0.0636,0.19299 -0.15388,0.36721 -0.27091,0.52324 -0.11702,0.15398 -0.26709,0.27816 -0.44982,0.37259 -0.18271,0.0945 -0.38282,0.14178 -0.60045,0.14178 -0.28333,0 -0.5357,-0.0781 -0.75743,-0.23418 -0.22173,-0.15604 -0.39012,-0.35705 -0.50509,-0.60341 -0.11292,-0.24637 -0.1692,-0.51125 -0.1692,-0.79457 0,-0.20325 0.0326,-0.40156 0.0983,-0.59454 0.0658,-0.19299 0.15815,-0.36631 0.27724,-0.52029 0.11907,-0.15398 0.27004,-0.27726 0.45276,-0.36964 0.18479,-0.0944 0.3858,-0.14136 0.60342,-0.14136 z" />
      <path
         id="path32"
         style="font-weight:600;font-size:7.7239px;font-family:Rawline;-inkscape-font-specification:'Rawline, Semi-Bold';fill:#1a1a1a;stroke-width:7.94579;paint-order:stroke fill markers"
         d="m 160.71803,179.07815 -1.75538,4.47789 h 0.75152 l 0.46796,-1.21652 h 1.72754 l 0.47133,1.21652 h 0.7452 l -1.7402,-4.47789 z m 0.33252,0.77599 0.72071,1.96171 h -1.46296 z" />
      <path
         id="path29"
         style="font-weight:600;font-size:7.7239px;font-family:Rawline;-inkscape-font-specification:'Rawline, Semi-Bold';fill:#1a1a1a;stroke-width:7.94579;paint-order:stroke fill markers"
         d="m 150.82964,179.07815 -1.75538,4.47789 h 0.75152 l 0.46796,-1.21652 h 1.72796 l 0.47092,1.21652 h 0.74562 l -1.7402,-4.47789 z m 0.33293,0.77599 0.7203,1.96171 h -1.46254 z" />
      <path
         id="text27"
         style="font-weight:600;font-size:7.7239px;font-family:Rawline;-inkscape-font-specification:'Rawline, Semi-Bold';fill:#1a1a1a;stroke-width:7.94579;paint-order:stroke fill markers"
         d="m 139.334,179.07815 v 4.47789 h 0.70552 v -1.55832 h 1.2102 c 0.19504,0 0.37773,-0.0411 0.54813,-0.12321 0.17246,-0.0821 0.31628,-0.1911 0.43125,-0.3266 0.11703,-0.13551 0.20816,-0.29141 0.27386,-0.46796 0.0657,-0.17656 0.0987,-0.35835 0.0987,-0.54518 0,-0.24021 -0.0585,-0.47113 -0.17554,-0.69287 -0.11702,-0.22173 -0.28452,-0.40442 -0.50214,-0.54814 -0.21557,-0.14371 -0.45275,-0.21561 -0.71143,-0.21561 z m 0.70552,0.62534 h 1.13003 c 0.19504,0 0.36253,0.0777 0.50214,0.23378 0.1396,0.15603 0.20929,0.35524 0.20929,0.5975 0,0.24225 -0.0639,0.44237 -0.19115,0.60045 -0.12524,0.15809 -0.28606,0.23715 -0.48315,0.23715 h -1.16716 z" />
      <path
         id="path15"
         style="font-weight:800;font-size:35.3161px;font-family:Rawline;-inkscape-font-specification:'Rawline, Ultra-Bold';fill:#1a1a1a;stroke-width:2.84717"
         d="m 142.96616,155.57325 c -1.36705,0.59353 -2.51509,1.37085 -3.44373,2.33178 -0.92286,0.9463 -1.57879,1.97652 -1.96783,3.09116 -0.38905,1.11465 -0.55695,2.29131 -0.50436,3.52946 0.0584,1.22352 0.34417,2.42714 0.85797,3.61053 0.48279,1.11199 1.14742,2.08394 1.99399,2.91675 0.84657,0.83278 1.80362,1.4725 2.87034,1.91872 1.07694,0.44179 2.27579,0.64857 3.5973,0.62042 1.32728,-0.0428 2.66427,-0.35666 4.01091,-0.94133 1.8465,-0.80171 3.28571,-1.89952 4.31746,-3.29322 1.03173,-1.39369 1.59147,-2.89722 1.67877,-4.51136 l -4.78764,0.65997 c 0.0179,0.68337 -0.22538,1.35257 -0.72902,2.00774 -0.50367,0.65516 -1.13284,1.14642 -1.88777,1.47419 -0.95896,0.41636 -1.92619,0.47906 -2.90164,0.18721 -0.96525,-0.29627 -1.71168,-0.95438 -2.23931,-1.97415 l 12.16565,-5.28201 c -0.15754,-0.58633 -0.34932,-1.13973 -0.57522,-1.66003 -0.49165,-1.13239 -1.15601,-2.11726 -1.99239,-2.95449 -0.83059,-0.85185 -1.77837,-1.51318 -2.84375,-1.98423 -1.06538,-0.47105 -2.25886,-0.69244 -3.58037,-0.66429 -1.32594,0.0179 -2.67233,0.32364 -4.03936,0.91718 z m 1.50703,3.63774 c 0.95896,-0.41635 1.8999,-0.45482 2.82301,-0.116 0.93328,0.3344 1.6748,0.99464 2.22416,1.98073 l -7.14649,3.10282 c -0.34534,-1.07467 -0.32684,-2.06489 0.0559,-2.97067 0.39292,-0.9102 1.07427,-1.57609 2.04345,-1.99688 z" />
      <path
         style="font-weight:800;font-size:35.3161px;font-family:Rawline;-inkscape-font-specification:'Rawline, Ultra-Bold';fill:#1a1a1a;stroke-width:2.84717"
         d="m 166.17821,173.25175 q -2.20211,0 -4.0539,-0.75072 -1.83509,-0.76741 -3.05292,-2.05198 -1.20116,-1.28456 -1.86846,-2.96951 -0.66731,-1.68496 -0.66731,-3.55342 0,-1.86845 0.65062,-3.53672 0.66731,-1.68495 1.86846,-2.96952 1.21783,-1.28456 3.05293,-2.03528 1.85178,-0.75072 4.07058,-0.75072 2.98618,0 5.13824,1.28457 2.15206,1.28456 3.25313,3.46999 l -5.32177,1.60154 q -1.05102,-1.70164 -3.10298,-1.70164 -1.71831,0 -2.86942,1.28457 -1.13441,1.28457 -1.13441,3.35321 0,2.08535 1.1511,3.40327 1.15111,1.31794 2.85273,1.31794 1.01765,0 1.86846,-0.4838 0.85082,-0.48379 1.26788,-1.28457 l 5.33847,1.63491 q -1.03434,2.15206 -3.23645,3.4533 -2.2021,1.28458 -5.20498,1.28458 z"
         id="path6" />
      <path
         style="font-weight:800;font-size:35.3161px;font-family:Rawline;-inkscape-font-specification:'Rawline, Ultra-Bold';fill:#1a1a1a;stroke-width:2.84717"
         d="m 138.59051,171.96717 q -2.96951,1.28458 -5.50528,1.28458 -1.06769,0 -1.95187,-0.26693 -0.8675,-0.25024 -1.56817,-0.80077 -0.68399,-0.55053 -1.08437,-1.48476 -0.3837,-0.95091 -0.3837,-2.21879 v -9.35898 h -2.28553 v -4.1373 h 2.28553 v -5.70548 h 5.47191 v 5.70548 h 3.6535 v 4.1373 h -3.6535 v 7.47383 q 0,1.66827 1.56817,1.66827 1.01765,0 2.38562,-0.63394 z"
         id="text2" />
      <path
         style="font-weight:600;font-size:7.7239px;font-family:Rawline;-inkscape-font-specification:'Rawline, Semi-Bold';fill:#1a1a1a;stroke-width:7.94579;paint-order:stroke fill markers"
         d="m 232.78274,180.39013 v 3.1658 h -0.70522 v -4.47769 h 0.57896 l 2.53757,3.23663 v -3.23048 h 0.71138 v 4.47154 h -0.61899 z"
         id="path49" />
      <path
         style="font-weight:600;font-size:7.7239px;font-family:Rawline;-inkscape-font-specification:'Rawline, Semi-Bold';fill:#1a1a1a;stroke-width:7.94579;paint-order:stroke fill markers"
         d="m 229.06589,183.55593 v -4.47769 h 0.70523 v 4.47769 z"
         id="path48" />
      <path
         style="font-weight:600;font-size:7.7239px;font-family:Rawline;-inkscape-font-specification:'Rawline, Semi-Bold';fill:#1a1a1a;stroke-width:7.94579;paint-order:stroke fill markers"
         d="m 226.56551,180.13145 q -0.14474,-0.16014 -0.49274,-0.30796 -0.348,-0.14782 -0.71754,-0.14782 -0.4373,0 -0.65594,0.16322 -0.21557,0.16014 -0.21557,0.45577 0,0.0924 0.0247,0.1663 0.0247,0.0739 0.0615,0.13242 0.04,0.0555 0.11702,0.10779 0.077,0.0523 0.1509,0.0893 0.077,0.037 0.20633,0.0801 0.13242,0.04 0.24636,0.0708 0.11395,0.0278 0.29872,0.0739 0.29565,0.0708 0.50506,0.14166 0.20941,0.0678 0.40342,0.17554 0.19401,0.10471 0.31104,0.23712 0.11702,0.12935 0.18478,0.3172 0.0708,0.18785 0.0708,0.42806 0,0.26792 -0.0862,0.48349 -0.0832,0.21557 -0.23097,0.36339 -0.14782,0.14783 -0.35723,0.24945 -0.20941,0.0986 -0.44962,0.14473 -0.24021,0.0431 -0.51737,0.0431 -0.51121,0 -0.98854,-0.15397 -0.47734,-0.15705 -0.8592,-0.44962 l 0.32335,-0.60667 q 0.19402,0.20017 0.63131,0.38803 0.44039,0.18478 0.90541,0.18478 0.41881,0 0.64362,-0.14783 0.22789,-0.14782 0.22789,-0.42498 0,-0.11086 -0.0339,-0.20017 -0.0339,-0.0893 -0.11704,-0.16014 -0.0831,-0.0739 -0.17245,-0.12626 -0.0862,-0.0523 -0.24944,-0.10779 -0.16014,-0.0555 -0.29564,-0.0924 -0.13242,-0.037 -0.36031,-0.0955 -0.35415,-0.0924 -0.58512,-0.18785 -0.23097,-0.0955 -0.40959,-0.23405 -0.17553,-0.13858 -0.2556,-0.32643 -0.0801,-0.19093 -0.0801,-0.44962 0,-0.32335 0.12319,-0.58204 0.12626,-0.26177 0.34491,-0.43114 0.21864,-0.16938 0.51429,-0.25869 0.29564,-0.0893 0.64363,-0.0893 0.82532,0 1.51207,0.50506 z"
         id="path47" />
      <path
         style="font-weight:600;font-size:7.7239px;font-family:Rawline;-inkscape-font-specification:'Rawline, Semi-Bold';fill:#1a1a1a;stroke-width:7.94579;paint-order:stroke fill markers"
         d="m 218.49107,180.39013 v 3.1658 h -0.70522 v -4.47769 h 0.57896 l 2.53756,3.23663 v -3.23048 h 0.7114 v 4.47154 h -0.619 z"
         id="path46" />
      <path
         style="font-weight:600;font-size:7.7239px;font-family:Rawline;-inkscape-font-specification:'Rawline, Semi-Bold';fill:#1a1a1a;stroke-width:7.94579;paint-order:stroke fill markers"
         d="m 215.7597,182.93078 v 0.62515 h -3.07033 v -4.47769 h 3.01489 v 0.62515 h -2.30968 v 1.27186 h 1.99865 v 0.5882 h -1.99865 v 1.36733 z"
         id="path45" />
      <path
         style="font-weight:600;font-size:7.7239px;font-family:Rawline;-inkscape-font-specification:'Rawline, Semi-Bold';fill:#1a1a1a;stroke-width:7.94579;paint-order:stroke fill markers"
         d="m 206.51545,182.93078 v 0.62515 h -3.07034 v -4.47769 h 3.01492 v 0.62515 h -2.30969 v 1.27186 h 1.99865 v 0.5882 h -1.99865 v 1.36733 z"
         id="path44" />
      <path
         style="font-weight:600;font-size:7.7239px;font-family:Rawline;-inkscape-font-specification:'Rawline, Semi-Bold';fill:#1a1a1a;stroke-width:7.94579;paint-order:stroke fill markers"
         d="m 185.1104,183.55593 v -3.19043 l -1.31807,2.42054 h -0.41573 l -1.32423,-2.42054 v 3.19043 h -0.70523 v -4.47769 h 0.75758 l 1.48128,2.73773 1.48129,-2.73773 h 0.75756 v 4.47769 z"
         id="path39" />
      <path
         style="font-weight:600;font-size:7.7239px;font-family:Rawline;-inkscape-font-specification:'Rawline, Semi-Bold';fill:#1a1a1a;stroke-width:7.94579;paint-order:stroke fill markers"
         d="m 164.97676,183.55593 v -4.47769 h 2.98412 v 0.62515 h -2.27889 v 1.33653 h 1.90626 v 0.58512 h -1.90626 v 1.93089 z"
         id="path34" />
      <path
         style="font-weight:600;font-size:7.7239px;font-family:Rawline;-inkscape-font-specification:'Rawline, Semi-Bold';fill:#1a1a1a;stroke-width:7.94579;paint-order:stroke fill markers"
         d="m 157.95268,179.70339 h -1.48745 v 3.85254 h -0.71447 v -3.85254 h -1.4936 v -0.62515 h 3.69552 z"
         id="path31" />
      <path
         style="font-weight:600;font-size:7.7239px;font-family:Rawline;-inkscape-font-specification:'Rawline, Semi-Bold';fill:#1a1a1a;stroke-width:7.94579;paint-order:stroke fill markers"
         d="m 144.55689,183.55593 v -4.47769 h 0.70522 v 3.85254 h 2.40517 v 0.62515 z"
         id="path28" />
      <path
         style="font-weight:800;font-size:35.3161px;font-family:Rawline;-inkscape-font-specification:'Rawline, Ultra-Bold';fill:#1a1a1a;stroke-width:2.84717"
         d="m 250.79637,173.19924 q -2.35226,0 -4.52101,-0.7674 -2.15206,-0.7674 -3.63682,-2.20212 l 1.86847,-3.45331 q 3.31983,2.43567 6.12254,2.43567 2.21878,0 2.21878,-1.40134 0,-0.70068 -0.86749,-1.10107 -0.43376,-0.20018 -2.23548,-0.75071 -0.98429,-0.33365 -1.65158,-0.56721 -0.65063,-0.23356 -1.36798,-0.55053 -0.70067,-0.31697 -1.13442,-0.60057 -0.43376,-0.28361 -0.86751,-0.66731 -0.41707,-0.3837 -0.65062,-0.80077 -0.21689,-0.43374 -0.35033,-0.96759 -0.13347,-0.55053 -0.13347,-1.20116 0,-2.70258 2.03528,-4.35416 2.03529,-1.66828 5.45523,-1.66828 4.08727,0 6.88994,2.53577 l -2.11869,3.41994 q -2.90277,-2.01859 -5.05484,-2.01859 -0.96759,0 -1.55149,0.35032 -0.56721,0.35035 -0.56721,1.08439 0,0.68398 0.60058,1.051 0.60057,0.36702 2.2021,0.81746 1.23452,0.38369 2.03529,0.6673 0.80077,0.26691 1.6349,0.63394 0.83413,0.36701 1.31792,0.75071 0.48381,0.38372 0.88419,0.90088 0.41707,0.50047 0.58389,1.15109 0.18352,0.63395 0.18352,1.43472 0,2.71927 -1.98524,4.28743 -1.96857,1.5515 -5.33845,1.5515 z"
         id="path14" />
      <path
         id="path13"
         style="font-weight:800;font-size:35.3161px;font-family:Rawline;-inkscape-font-specification:'Rawline, Ultra-Bold';fill:#1a1a1a;stroke-width:2.84717"
         d="m 232.4848,154.06967 c -2.80268,0 -5.39932,0.77816 -7.79052,2.33521 l 1.6513,3.47005 c 1.01208,-0.67842 1.95214,-1.1734 2.81965,-1.4848 0.87862,-0.32254 1.80156,-0.48344 2.76915,-0.48344 2.4023,0 3.60353,1.01195 3.60353,3.03611 v 0.7839 c -1.11217,-0.47823 -2.44693,-0.7174 -4.00399,-0.7174 -2.27996,0 -4.13708,0.5561 -5.57179,1.66828 -1.43471,1.10106 -2.15223,2.53609 -2.15223,4.30446 0,1.62378 0.59525,2.98055 1.78527,4.07049 1.19004,1.08993 2.68033,1.63478 4.47094,1.63478 1.21227,0 2.36902,-0.26704 3.47007,-0.80088 1.11218,-0.54497 2.06298,-1.32363 2.85264,-2.33572 l 0.1,0.78441 c 0.28917,1.52368 1.40677,2.28521 3.35309,2.28521 0.70067,0 1.47396,-0.0885 2.3192,-0.26647 v -4.53792 c -0.43374,-0.0334 -0.73993,-0.16102 -0.91788,-0.38346 -0.16682,-0.23355 -0.24996,-0.62287 -0.24996,-1.16786 v -4.67139 c 0,-2.42456 -0.74541,-4.28169 -2.23572,-5.5718 -1.47919,-1.30126 -3.57013,-1.95176 -6.27271,-1.95176 z m -0.033,10.00924 c 0.94536,0 1.97394,0.19466 3.08611,0.58392 v 1.60179 c 0,0.46713 -0.28905,0.93423 -0.86739,1.40133 -0.37814,0.33366 -0.83986,0.60022 -1.38482,0.8004 -0.53385,0.2002 -1.07334,0.30046 -1.6183,0.30046 -0.81188,0 -1.46777,-0.21667 -1.96826,-0.65041 -0.48934,-0.44487 -0.73439,-0.97898 -0.73439,-1.60181 0,-0.71178 0.32818,-1.29578 0.98438,-1.75176 0.65617,-0.456 1.4906,-0.68392 2.50267,-0.68392 z" />
      <path
         style="font-weight:800;font-size:35.3161px;font-family:Rawline;-inkscape-font-specification:'Rawline, Ultra-Bold';fill:#1a1a1a;stroke-width:2.84717"
         d="m 224.32822,159.09093 q -2.05199,0.0334 -3.63684,0.68398 -1.58485,0.63395 -2.28552,1.81842 v 10.76032 h -5.45523 v -17.93387 h 5.02148 v 3.62013 q 0.93425,-1.78503 2.38563,-2.83605 1.45138,-1.051 3.0696,-1.06769 0.70067,0 0.90088,0.0334 z"
         id="path11" />
      <path
         id="path10"
         style="font-weight:800;font-size:35.3161px;font-family:Rawline;-inkscape-font-specification:'Rawline, Ultra-Bold';fill:#1a1a1a;stroke-width:2.84717"
         d="m 193.59815,147.413 v 24.94086 h 4.73789 v -2.96962 c 0.61171,1.05657 1.42899,1.87386 2.45219,2.45219 1.02321,0.56721 2.21318,0.85088 3.57004,0.85088 1.56818,0 2.99196,-0.40057 4.27097,-1.20133 1.29014,-0.81189 2.2962,-1.91825 3.01913,-3.31959 0.72292,-1.41247 1.08435,-2.97515 1.08435,-4.68792 0,-1.72387 -0.33356,-3.30318 -1.00087,-4.73789 -0.65619,-1.43471 -1.58449,-2.56895 -2.78564,-3.40308 -1.19004,-0.84526 -2.52478,-1.26783 -4.004,-1.26783 -1.31236,0 -2.47447,0.28906 -3.48656,0.86739 -1.01209,0.56721 -1.81325,1.37325 -2.40269,2.41869 V 147.413 Z m 9.49229,11.31108 c 1.14554,0 2.10174,0.46709 2.86914,1.40133 0.77853,0.93422 1.16784,2.05183 1.16784,3.35306 0,1.31238 -0.40595,2.40796 -1.21784,3.2866 -0.80077,0.87863 -1.82934,1.31782 -3.0861,1.31782 -0.76741,0 -1.50156,-0.2279 -2.20223,-0.68391 -0.68954,-0.45599 -1.21239,-1.06199 -1.56829,-1.81826 v -3.75404 c 0.38927,-0.91198 0.94538,-1.65689 1.66828,-2.23522 0.73404,-0.57831 1.52394,-0.86738 2.3692,-0.86738 z" />
      <path
         style="font-weight:800;font-size:35.3161px;font-family:Rawline;-inkscape-font-specification:'Rawline, Ultra-Bold';fill:#1a1a1a;stroke-width:2.84717"
         d="m 187.46074,172.35365 v -17.93387 h 5.45524 v 17.93387 z"
         id="path8" />
      <path
         style="font-weight:800;font-size:35.3161px;font-family:Rawline;-inkscape-font-specification:'Rawline, Ultra-Bold';fill:#1a1a1a;stroke-width:2.84717"
         d="m 187.46074,152.36781 v -4.95475 h 5.45524 v 4.95475 z"
         id="path7" />
      <path
         style="font-weight:800;font-size:35.3161px;font-family:Rawline;-inkscape-font-specification:'Rawline, Ultra-Bold';fill:#1a1a1a;stroke-width:2.84717"
         d="m 177.48551,147.41306 h 5.45524 v 18.55113 q 0,2.08533 1.56817,2.08533 0.91755,0 1.98522,-0.51716 l 0.71735,4.10393 q -1.01764,0.46712 -2.36892,0.73404 -1.33461,0.2836 -2.48571,0.2836 -2.33558,0 -3.60346,-1.23452 -1.26789,-1.23452 -1.26789,-3.53671 z"
         id="text3" />
    </g>
  </g>
</svg>
